<svg width="202" height="38" viewBox="0 0 202 38" fill="none" xmlns="http://www.w3.org/2000/svg">
<mask id="path-1-inside-1_73_553" fill="white">
<path fill-rule="evenodd" clip-rule="evenodd" d="M164.976 0.396362H201.741V7.51217L199.369 7.51225V30.6386H201.741V32.4174H41.3391L36.8916 37.7544H0.126587V30.6386H2.4986V7.51225H0.126616V5.73315H160.529L164.976 0.396362ZM83.1445 7.51225H9.02144V6.91042H83.1445V7.51225ZM110.422 31.2316H192.847V30.6297H110.422V31.2316Z"/>
</mask>
<path fill-rule="evenodd" clip-rule="evenodd" d="M164.976 0.396362H201.741V7.51217L199.369 7.51225V30.6386H201.741V32.4174H41.3391L36.8916 37.7544H0.126587V30.6386H2.4986V7.51225H0.126616V5.73315H160.529L164.976 0.396362ZM83.1445 7.51225H9.02144V6.91042H83.1445V7.51225ZM110.422 31.2316H192.847V30.6297H110.422V31.2316Z" fill="url(#paint0_linear_73_553)" fill-opacity="0.4"/>
<path d="M201.741 0.396362H202.042V0.0954449H201.741V0.396362ZM164.976 0.396362V0.0954449H164.835L164.745 0.20372L164.976 0.396362ZM201.741 7.51217L201.741 7.81309L202.042 7.81308V7.51217H201.741ZM199.369 7.51225V7.21133L199.068 7.21134V7.51225H199.369ZM199.369 30.6386H199.068V30.9396H199.369V30.6386ZM201.741 30.6386H202.042V30.3377H201.741V30.6386ZM201.741 32.4174V32.7184H202.042V32.4174H201.741ZM41.3391 32.4174V32.1165H41.1981L41.1079 32.2248L41.3391 32.4174ZM36.8916 37.7544V38.0553H37.0326L37.1228 37.947L36.8916 37.7544ZM0.126587 37.7544H-0.174331V38.0553H0.126587V37.7544ZM0.126587 30.6386V30.3376H-0.174331V30.6386H0.126587ZM2.4986 30.6386V30.9395H2.79952V30.6386H2.4986ZM2.4986 7.51225H2.79952V7.21133H2.4986V7.51225ZM0.126616 7.51225H-0.174301V7.81317H0.126616V7.51225ZM0.126616 5.73315V5.43224H-0.174301V5.73315H0.126616ZM160.529 5.73315V6.03407H160.67L160.76 5.9258L160.529 5.73315ZM9.02144 7.51225H8.72052V7.81317H9.02144V7.51225ZM83.1445 7.51225V7.81317H83.4454V7.51225H83.1445ZM9.02144 6.91042V6.6095H8.72052V6.91042H9.02144ZM83.1445 6.91042H83.4454V6.6095H83.1445V6.91042ZM192.847 31.2316V31.5325H193.147V31.2316H192.847ZM110.422 31.2316H110.121V31.5325H110.422V31.2316ZM192.847 30.6297H193.147V30.3288H192.847V30.6297ZM110.422 30.6297V30.3288H110.121V30.6297H110.422ZM201.741 0.0954449H164.976V0.69728H201.741V0.0954449ZM202.042 7.51217V0.396362H201.44V7.51217H202.042ZM199.369 7.81317L201.741 7.81309L201.741 7.21126L199.369 7.21133L199.369 7.81317ZM199.67 30.6386V7.51225H199.068V30.6386H199.67ZM201.741 30.3377H199.369V30.9396H201.741V30.3377ZM202.042 32.4174V30.6386H201.44V32.4174H202.042ZM41.3391 32.7184H201.741V32.1165H41.3391V32.7184ZM41.1079 32.2248L36.6604 37.5617L37.1228 37.947L41.5702 32.6101L41.1079 32.2248ZM36.8916 37.4535H0.126587V38.0553H36.8916V37.4535ZM0.427504 37.7544V30.6386H-0.174331V37.7544H0.427504ZM0.126587 30.9395H2.4986V30.3376H0.126587V30.9395ZM2.19768 7.51225V30.6386H2.79952V7.51225H2.19768ZM0.126616 7.81317H2.4986V7.21133H0.126616V7.81317ZM-0.174301 5.73315V7.51225H0.427534V5.73315H-0.174301ZM160.529 5.43224H0.126616V6.03407H160.529V5.43224ZM164.745 0.20372L160.298 5.54051L160.76 5.9258L165.208 0.589005L164.745 0.20372ZM9.02144 7.81317H83.1445V7.21133H9.02144V7.81317ZM8.72052 6.91042V7.51225H9.32235V6.91042H8.72052ZM83.1445 6.6095H9.02144V7.21133H83.1445V6.6095ZM83.4454 7.51225V6.91042H82.8436V7.51225H83.4454ZM192.847 30.9306H110.422V31.5325H192.847V30.9306ZM192.546 30.6297V31.2316H193.147V30.6297H192.546ZM110.422 30.9306H192.847V30.3288H110.422V30.9306ZM110.723 31.2316V30.6297H110.121V31.2316H110.723Z" fill="#D2ECFF" mask="url(#path-1-inside-1_73_553)"/>
<rect x="6.0564" y="13.442" width="2.96492" height="17.1965" fill="#D9D9D9"/>
<rect x="192.847" y="7.51221" width="2.96492" height="17.1965" fill="#D9D9D9"/>
<defs>
<linearGradient id="paint0_linear_73_553" x1="100.934" y1="0.396362" x2="100.934" y2="37.7544" gradientUnits="userSpaceOnUse">
<stop stop-color="#10092A" stop-opacity="0"/>
<stop offset="1" stop-color="#D00064"/>
</linearGradient>
</defs>
</svg>
