<svg width="335" height="63" viewBox="0 0 335 63" fill="none" xmlns="http://www.w3.org/2000/svg">
<mask id="path-1-inside-1_73_351" fill="white">
<path fill-rule="evenodd" clip-rule="evenodd" d="M273.912 0H335V8.86757V11.8235L331.059 11.8236V50.2501H335V53.2058H68.478L61.0882 62.0735H0V53.2058V50.2501V50.25H3.94124V11.8236H0V8.86757H266.522L273.912 0ZM137.941 11.8236H14.7794V10.8236H137.941V11.8236ZM183.265 51.2353H320.221V50.2353H183.265V51.2353Z"/>
</mask>
<path fill-rule="evenodd" clip-rule="evenodd" d="M273.912 0H335V8.86757V11.8235L331.059 11.8236V50.2501H335V53.2058H68.478L61.0882 62.0735H0V53.2058V50.2501V50.25H3.94124V11.8236H0V8.86757H266.522L273.912 0ZM137.941 11.8236H14.7794V10.8236H137.941V11.8236ZM183.265 51.2353H320.221V50.2353H183.265V51.2353Z" fill="url(#paint0_linear_73_351)" fill-opacity="0.4"/>
<path d="M335 0H335.5V-0.5H335V0ZM273.912 0V-0.5H273.678L273.528 -0.320092L273.912 0ZM335 11.8235V12.3235L335.5 12.3235V11.8235H335ZM331.059 11.8236V11.3236L330.559 11.3236V11.8236H331.059ZM331.059 50.2501H330.559V50.7501H331.059V50.2501ZM335 50.2501H335.5V49.7501H335V50.2501ZM335 53.2058V53.7058H335.5V53.2058H335ZM68.478 53.2058V52.7058H68.2438L68.0939 52.8857L68.478 53.2058ZM61.0882 62.0735V62.5735H61.3224L61.4724 62.3936L61.0882 62.0735ZM0 62.0735H-0.5V62.5735H0V62.0735ZM0 50.25V49.75H-0.5V50.25H0ZM3.94124 50.25V50.75H4.44124V50.25H3.94124ZM3.94124 11.8236H4.44124V11.3236H3.94124V11.8236ZM0 11.8236H-0.5V12.3236H0V11.8236ZM0 8.86757V8.36757H-0.5V8.86757H0ZM266.522 8.86757V9.36757H266.756L266.906 9.18766L266.522 8.86757ZM14.7794 11.8236H14.2794V12.3236H14.7794V11.8236ZM137.941 11.8236V12.3236H138.441V11.8236H137.941ZM14.7794 10.8236V10.3236H14.2794V10.8236H14.7794ZM137.941 10.8236H138.441V10.3236H137.941V10.8236ZM320.221 51.2353V51.7353H320.721V51.2353H320.221ZM183.265 51.2353H182.765V51.7353H183.265V51.2353ZM320.221 50.2353H320.721V49.7353H320.221V50.2353ZM183.265 50.2353V49.7353H182.765V50.2353H183.265ZM335 -0.5H273.912V0.5H335V-0.5ZM335.5 8.86757V0H334.5V8.86757H335.5ZM335.5 11.8235V8.86757H334.5V11.8235H335.5ZM331.059 12.3236L335 12.3235V11.3235L331.059 11.3236V12.3236ZM331.559 50.2501V11.8236H330.559V50.2501H331.559ZM335 49.7501H331.059V50.7501H335V49.7501ZM335.5 53.2058V50.2501H334.5V53.2058H335.5ZM68.478 53.7058H335V52.7058H68.478V53.7058ZM68.0939 52.8857L60.7041 61.7534L61.4724 62.3936L68.8621 53.5259L68.0939 52.8857ZM61.0882 61.5735H0V62.5735H61.0882V61.5735ZM0.5 62.0735V53.2058H-0.5V62.0735H0.5ZM0.5 53.2058V50.2501H-0.5V53.2058H0.5ZM0.5 50.2501V50.25H-0.5V50.2501H0.5ZM0 50.75H3.94124V49.75H0V50.75ZM3.44124 11.8236V50.25H4.44124V11.8236H3.44124ZM0 12.3236H3.94124V11.3236H0V12.3236ZM-0.5 8.86757V11.8236H0.5V8.86757H-0.5ZM266.522 8.36757H0V9.36757H266.522V8.36757ZM273.528 -0.320092L266.138 8.54748L266.906 9.18766L274.296 0.320092L273.528 -0.320092ZM14.7794 12.3236H137.941V11.3236H14.7794V12.3236ZM14.2794 10.8236V11.8236H15.2794V10.8236H14.2794ZM137.941 10.3236H14.7794V11.3236H137.941V10.3236ZM138.441 11.8236V10.8236H137.441V11.8236H138.441ZM320.221 50.7353H183.265V51.7353H320.221V50.7353ZM319.721 50.2353V51.2353H320.721V50.2353H319.721ZM183.265 50.7353H320.221V49.7353H183.265V50.7353ZM183.765 51.2353V50.2353H182.765V51.2353H183.765Z" fill="#D2ECFF" mask="url(#path-1-inside-1_73_351)"/>
<rect x="9.85291" y="21.6765" width="4.92647" height="28.5735" fill="#D2ECFF" fill-opacity="0.8"/>
<rect x="320.221" y="11.8236" width="4.92647" height="28.5735" fill="#D2ECFF" fill-opacity="0.8"/>
<defs>
<linearGradient id="paint0_linear_73_351" x1="167.5" y1="0" x2="167.5" y2="62.0735" gradientUnits="userSpaceOnUse">
<stop stop-color="#10092A" stop-opacity="0"/>
<stop offset="1" stop-color="#D00064"/>
</linearGradient>
</defs>
</svg>
