<svg width="11" height="13" viewBox="0 0 11 13" fill="none" xmlns="http://www.w3.org/2000/svg">
<path d="M0.417358 3.77188V8.63645C0.417358 8.94704 0.583346 9.23421 0.852185 9.38899L5.06502 11.8218C5.33386 11.9766 5.66481 11.9766 5.93365 11.8218L10.1465 9.38899C10.4153 9.23421 10.5813 8.94704 10.5813 8.63645V3.77188C10.5813 3.46129 10.4153 3.17413 10.1465 3.01934L5.93365 0.586549C5.66481 0.431762 5.33386 0.431762 5.06502 0.586549L0.851167 3.01934C0.582328 3.17413 0.417358 3.46129 0.417358 3.77188Z" fill="#213147"/>
<path d="M6.41845 7.14762L5.81764 8.79528C5.80135 8.84111 5.80135 8.891 5.81764 8.93683L6.85124 11.7719L8.04676 11.0814L6.61194 7.14762C6.57935 7.05699 6.45104 7.05699 6.41845 7.14762Z" fill="#12AAFF"/>
<path d="M7.62317 4.37681C7.59058 4.28618 7.46227 4.28618 7.42969 4.37681L6.82887 6.02447C6.81258 6.07029 6.81258 6.12019 6.82887 6.16602L8.52235 10.8076L9.71787 10.1171L7.62317 4.37681Z" fill="#12AAFF"/>
<path d="M5.49898 0.768839C5.52851 0.768839 5.55805 0.776986 5.58452 0.791242L10.1436 3.42363C10.1965 3.45418 10.2291 3.5112 10.2291 3.57128V8.83503C10.2291 8.89613 10.1965 8.95214 10.1436 8.98269L5.58452 11.6151C5.55906 11.6303 5.52851 11.6375 5.49898 11.6375C5.46945 11.6375 5.43992 11.6293 5.41344 11.6151L0.854379 8.98472C0.801426 8.95417 0.768839 8.89715 0.768839 8.83707V3.5723C0.768839 3.5112 0.801426 3.45519 0.854379 3.42464L5.41344 0.792261C5.43992 0.776986 5.46945 0.768839 5.49898 0.768839ZM5.49898 0C5.33707 0 5.17413 0.0417515 5.02851 0.126273L0.470468 2.75764C0.179226 2.92566 0 3.23625 0 3.5723V8.83605C0 9.1721 0.179226 9.48269 0.470468 9.65071L5.02953 12.2831C5.17515 12.3666 5.33707 12.4094 5.5 12.4094C5.66191 12.4094 5.82485 12.3676 5.97047 12.2831L10.5295 9.65071C10.8208 9.48269 11 9.1721 11 8.83605V3.5723C11 3.23625 10.8208 2.92566 10.5295 2.75764L5.96945 0.126273C5.82383 0.0417515 5.6609 0 5.49898 0Z" fill="#9DCCED"/>
<path d="M2.48364 10.8136L2.90319 9.66492L3.74739 10.3665L2.95818 11.0875L2.48364 10.8136Z" fill="#213147"/>
<path d="M5.11485 3.1955H3.95904C3.87249 3.1955 3.79509 3.24947 3.76556 3.33093L1.28796 10.1232L2.48348 10.8136L5.21159 3.33399C5.23705 3.26678 5.18715 3.1955 5.11485 3.1955Z" fill="white"/>
<path d="M7.13731 3.1955H5.98151C5.89495 3.1955 5.81756 3.24947 5.78803 3.33093L2.95911 11.0865L4.15463 11.777L7.23406 3.33399C7.2585 3.26678 7.2086 3.1955 7.13731 3.1955Z" fill="white"/>
</svg>
