<svg width="614" height="213" viewBox="0 0 614 213" fill="none" xmlns="http://www.w3.org/2000/svg">
<rect x="1.39736" y="0.993617" width="330.134" height="9.40256" stroke="#D2ECFF" stroke-width="1.04473"/>
<rect x="334.666" y="0.993617" width="4.17891" height="9.40256" stroke="#D2ECFF" stroke-width="1.04473"/>
<rect x="341.979" y="0.993617" width="4.17891" height="9.40256" stroke="#D2ECFF" stroke-width="1.04473"/>
<rect x="349.292" y="0.993617" width="4.17891" height="9.40256" stroke="#D2ECFF" stroke-width="1.04473"/>
<rect x="356.605" y="0.993617" width="4.17891" height="9.40256" stroke="#D2ECFF" stroke-width="1.04473"/>
<rect x="363.918" y="0.993617" width="4.17891" height="9.40256" stroke="#D2ECFF" stroke-width="1.04473"/>
<rect x="371.231" y="0.993617" width="4.17891" height="9.40256" stroke="#D2ECFF" stroke-width="1.04473"/>
<rect x="378.544" y="0.993617" width="4.17891" height="9.40256" stroke="#D2ECFF" stroke-width="1.04473"/>
<rect x="385.857" y="0.993617" width="4.17891" height="9.40256" stroke="#D2ECFF" stroke-width="1.04473"/>
<rect x="393.171" y="0.993617" width="4.17891" height="9.40256" stroke="#D2ECFF" stroke-width="1.04473"/>
<rect x="400.484" y="0.993617" width="4.17891" height="9.40256" stroke="#D2ECFF" stroke-width="1.04473"/>
<rect x="407.797" y="0.993617" width="4.17891" height="9.40256" stroke="#D2ECFF" stroke-width="1.04473"/>
<rect x="415.11" y="0.993617" width="4.17891" height="9.40256" stroke="#D2ECFF" stroke-width="1.04473"/>
<rect x="422.423" y="0.993617" width="4.17891" height="9.40256" stroke="#D2ECFF" stroke-width="1.04473"/>
<rect x="429.736" y="0.993617" width="4.17891" height="9.40256" stroke="#D2ECFF" stroke-width="1.04473"/>
<rect x="437.049" y="0.993617" width="4.17891" height="9.40256" stroke="#D2ECFF" stroke-width="1.04473"/>
<rect x="444.362" y="0.993617" width="4.17891" height="9.40256" stroke="#D2ECFF" stroke-width="1.04473"/>
<rect x="451.675" y="0.993617" width="4.17891" height="9.40256" stroke="#D2ECFF" stroke-width="1.04473"/>
<rect x="458.988" y="0.993617" width="4.17891" height="9.40256" stroke="#D2ECFF" stroke-width="1.04473"/>
<rect x="466.302" y="0.993617" width="4.17891" height="9.40256" stroke="#D2ECFF" stroke-width="1.04473"/>
<rect x="473.615" y="0.993617" width="4.17891" height="9.40256" stroke="#D2ECFF" stroke-width="1.04473"/>
<mask id="path-22-inside-1_73_212" fill="white">
<path fill-rule="evenodd" clip-rule="evenodd" d="M0.875 18.2316C0.875 17.0776 1.81048 16.1422 2.96446 16.1422H611.911C613.065 16.1422 614 17.0776 614 18.2316V209.939C614 211.093 613.065 212.029 611.911 212.029H2.96447C1.81049 212.029 0.875 211.093 0.875 209.939V18.2316ZM10.2776 25.5447L10.2776 85.0942H9.23283L9.23282 25.5447H10.2776ZM10.2776 203.149L10.2776 143.599H9.23282L9.23283 203.149H10.2776ZM411.453 195.835H607.862V206.283H401.006L411.453 195.835ZM224.938 56C224.938 55.4822 224.518 55.0625 224 55.0625C223.482 55.0625 223.062 55.4822 223.062 56V149.75C223.062 150.268 223.482 150.688 224 150.688C224.518 150.688 224.938 150.268 224.938 149.75V56Z"/>
</mask>
<path fill-rule="evenodd" clip-rule="evenodd" d="M0.875 18.2316C0.875 17.0776 1.81048 16.1422 2.96446 16.1422H611.911C613.065 16.1422 614 17.0776 614 18.2316V209.939C614 211.093 613.065 212.029 611.911 212.029H2.96447C1.81049 212.029 0.875 211.093 0.875 209.939V18.2316ZM10.2776 25.5447L10.2776 85.0942H9.23283L9.23282 25.5447H10.2776ZM10.2776 203.149L10.2776 143.599H9.23282L9.23283 203.149H10.2776ZM411.453 195.835H607.862V206.283H401.006L411.453 195.835ZM224.938 56C224.938 55.4822 224.518 55.0625 224 55.0625C223.482 55.0625 223.062 55.4822 223.062 56V149.75C223.062 150.268 223.482 150.688 224 150.688C224.518 150.688 224.938 150.268 224.938 149.75V56Z" fill="#10092A" fill-opacity="0.5"/>
<path d="M10.2776 85.0942V86.0737H11.257V85.0942H10.2776ZM10.2776 25.5447H11.257V24.5653H10.2776V25.5447ZM9.23283 85.0942H8.25339V86.0737H9.23283V85.0942ZM9.23282 25.5447V24.5653H8.25339V25.5447H9.23282ZM10.2776 143.599H11.257V142.62H10.2776V143.599ZM10.2776 203.149V204.128H11.257V203.149H10.2776ZM9.23282 143.599V142.62H8.25339V143.599H9.23282ZM9.23283 203.149H8.25339V204.128H9.23283V203.149ZM607.862 195.835H608.842V194.856H607.862V195.835ZM411.453 195.835V194.856H411.048L410.761 195.143L411.453 195.835ZM607.862 206.283V207.262H608.842V206.283H607.862ZM401.006 206.283L400.313 205.59L398.641 207.262H401.006V206.283ZM2.96446 15.1627C1.26956 15.1627 -0.104433 16.5367 -0.104433 18.2316H1.85443C1.85443 17.6186 2.35141 17.1216 2.96446 17.1216V15.1627ZM611.911 15.1627H2.96446V17.1216H611.911V15.1627ZM614.979 18.2316C614.979 16.5367 613.605 15.1627 611.911 15.1627V17.1216C612.524 17.1216 613.021 17.6186 613.021 18.2316H614.979ZM614.979 209.939V18.2316H613.021V209.939H614.979ZM611.911 213.008C613.605 213.008 614.979 211.634 614.979 209.939H613.021C613.021 210.552 612.524 211.049 611.911 211.049V213.008ZM2.96447 213.008H611.911V211.049H2.96447V213.008ZM-0.104433 209.939C-0.104433 211.634 1.26957 213.008 2.96447 213.008V211.049C2.35141 211.049 1.85443 210.552 1.85443 209.939H-0.104433ZM-0.104433 18.2316V209.939H1.85443V18.2316H-0.104433ZM11.257 85.0942L11.257 25.5447H9.29812L9.29812 85.0942H11.257ZM9.23283 86.0737H10.2776V84.1148H9.23283V86.0737ZM8.25339 25.5447L8.25339 85.0942H10.2123L10.2123 25.5447H8.25339ZM10.2776 24.5653H9.23282V26.5242H10.2776V24.5653ZM9.29812 143.599L9.29812 203.149H11.257L11.257 143.599H9.29812ZM9.23282 144.578H10.2776V142.62H9.23282V144.578ZM10.2123 203.149L10.2123 143.599H8.25339L8.25339 203.149H10.2123ZM10.2776 202.169H9.23283V204.128H10.2776V202.169ZM607.862 194.856H411.453V196.815H607.862V194.856ZM608.842 206.283V195.835H606.883V206.283H608.842ZM401.006 207.262H607.862V205.303H401.006V207.262ZM410.761 195.143L400.313 205.59L401.699 206.975L412.146 196.528L410.761 195.143ZM224 56.0419C223.977 56.0419 223.958 56.0232 223.958 56H225.917C225.917 54.9413 225.059 54.0831 224 54.0831V56.0419ZM224.042 56C224.042 56.0232 224.023 56.0419 224 56.0419V54.0831C222.941 54.0831 222.083 54.9413 222.083 56H224.042ZM224.042 149.75V56H222.083V149.75H224.042ZM224 149.708C224.023 149.708 224.042 149.727 224.042 149.75H222.083C222.083 150.809 222.941 151.667 224 151.667V149.708ZM223.958 149.75C223.958 149.727 223.977 149.708 224 149.708V151.667C225.059 151.667 225.917 150.809 225.917 149.75H223.958ZM223.958 56V149.75H225.917V56H223.958Z" fill="#D2ECFF" mask="url(#path-22-inside-1_73_212)"/>
</svg>
