<svg width="371" height="138" viewBox="0 0 371 138" fill="none" xmlns="http://www.w3.org/2000/svg">
<rect x="0.339905" y="0.339905" width="199.716" height="6.11828" stroke="#D2ECFF" stroke-width="0.679809"/>
<rect x="202" y="0.339905" width="2.481" height="6.11828" stroke="#D2ECFF" stroke-width="0.679809"/>
<rect x="206.425" y="0.339905" width="2.481" height="6.11828" stroke="#D2ECFF" stroke-width="0.679809"/>
<rect x="210.85" y="0.339905" width="2.481" height="6.11828" stroke="#D2ECFF" stroke-width="0.679809"/>
<rect x="215.275" y="0.339905" width="2.481" height="6.11828" stroke="#D2ECFF" stroke-width="0.679809"/>
<rect x="219.7" y="0.339905" width="2.481" height="6.11828" stroke="#D2ECFF" stroke-width="0.679809"/>
<rect x="224.125" y="0.339905" width="2.481" height="6.11828" stroke="#D2ECFF" stroke-width="0.679809"/>
<rect x="228.55" y="0.339905" width="2.481" height="6.11828" stroke="#D2ECFF" stroke-width="0.679809"/>
<rect x="232.975" y="0.339905" width="2.481" height="6.11828" stroke="#D2ECFF" stroke-width="0.679809"/>
<rect x="237.401" y="0.339905" width="2.481" height="6.11828" stroke="#D2ECFF" stroke-width="0.679809"/>
<rect x="241.826" y="0.339905" width="2.481" height="6.11828" stroke="#D2ECFF" stroke-width="0.679809"/>
<rect x="246.251" y="0.339905" width="2.481" height="6.11828" stroke="#D2ECFF" stroke-width="0.679809"/>
<rect x="250.676" y="0.339905" width="2.481" height="6.11828" stroke="#D2ECFF" stroke-width="0.679809"/>
<rect x="255.101" y="0.339905" width="2.481" height="6.11828" stroke="#D2ECFF" stroke-width="0.679809"/>
<rect x="259.526" y="0.339905" width="2.481" height="6.11828" stroke="#D2ECFF" stroke-width="0.679809"/>
<rect x="263.951" y="0.339905" width="2.481" height="6.11828" stroke="#D2ECFF" stroke-width="0.679809"/>
<rect x="268.377" y="0.339905" width="2.481" height="6.11828" stroke="#D2ECFF" stroke-width="0.679809"/>
<rect x="272.802" y="0.339905" width="2.481" height="6.11828" stroke="#D2ECFF" stroke-width="0.679809"/>
<rect x="277.227" y="0.339905" width="2.481" height="6.11828" stroke="#D2ECFF" stroke-width="0.679809"/>
<rect x="281.652" y="0.339905" width="2.481" height="6.11828" stroke="#D2ECFF" stroke-width="0.679809"/>
<rect x="286.077" y="0.339905" width="2.481" height="6.11828" stroke="#D2ECFF" stroke-width="0.679809"/>
<mask id="path-22-inside-1_73_517" fill="white">
<path fill-rule="evenodd" clip-rule="evenodd" d="M0 11.5567C0 10.8058 0.608722 10.1971 1.35962 10.1971H369.64C370.391 10.1971 371 10.8058 371 11.5567V136.302C371 137.053 370.391 137.661 369.64 137.661H1.35962C0.608719 137.661 0 137.053 0 136.302V11.5567ZM5.68959 16.3154L5.68959 55.0646H5.00978L5.00978 16.3154H5.68959ZM5.68959 131.883L5.68959 93.1338L5.00978 93.1338L5.00978 131.883H5.68959ZM248.44 127.124H367.286V133.922H242.118L248.44 127.124ZM135.622 36.1328C135.622 35.7959 135.349 35.5228 135.012 35.5228C134.675 35.5228 134.402 35.7959 134.402 36.1328V97.1363C134.402 97.4733 134.675 97.7464 135.012 97.7464C135.349 97.7464 135.622 97.4733 135.622 97.1363V36.1328Z"/>
</mask>
<path fill-rule="evenodd" clip-rule="evenodd" d="M0 11.5567C0 10.8058 0.608722 10.1971 1.35962 10.1971H369.64C370.391 10.1971 371 10.8058 371 11.5567V136.302C371 137.053 370.391 137.661 369.64 137.661H1.35962C0.608719 137.661 0 137.053 0 136.302V11.5567ZM5.68959 16.3154L5.68959 55.0646H5.00978L5.00978 16.3154H5.68959ZM5.68959 131.883L5.68959 93.1338L5.00978 93.1338L5.00978 131.883H5.68959ZM248.44 127.124H367.286V133.922H242.118L248.44 127.124ZM135.622 36.1328C135.622 35.7959 135.349 35.5228 135.012 35.5228C134.675 35.5228 134.402 35.7959 134.402 36.1328V97.1363C134.402 97.4733 134.675 97.7464 135.012 97.7464C135.349 97.7464 135.622 97.4733 135.622 97.1363V36.1328Z" fill="#10092A" fill-opacity="0.5"/>
<path d="M5.68959 55.0646V55.7019H6.32691V55.0646H5.68959ZM5.68959 16.3154H6.32691V15.6781H5.68959V16.3154ZM5.00978 55.0646H4.37246V55.7019H5.00978V55.0646ZM5.00978 16.3154V15.6781H4.37246V16.3154H5.00978ZM5.68959 93.1338H6.32691V92.4965L5.68958 92.4965L5.68959 93.1338ZM5.68959 131.883V132.52H6.32691V131.883H5.68959ZM5.00978 93.1338L5.00977 92.4965L4.37246 92.4965V93.1338H5.00978ZM5.00978 131.883H4.37246V132.52H5.00978V131.883ZM367.286 127.124H367.923V126.487H367.286V127.124ZM248.44 127.124V126.487H248.162L247.973 126.69L248.44 127.124ZM367.286 133.922V134.56H367.923V133.922H367.286ZM242.118 133.922L241.651 133.488L240.655 134.56H242.118V133.922ZM1.35962 9.55976C0.256739 9.55976 -0.637321 10.4538 -0.637321 11.5567H0.637321C0.637321 11.1578 0.960705 10.8344 1.35962 10.8344V9.55976ZM369.64 9.55976H1.35962V10.8344H369.64V9.55976ZM371.637 11.5567C371.637 10.4538 370.743 9.55976 369.64 9.55976V10.8344C370.039 10.8344 370.363 11.1578 370.363 11.5567H371.637ZM371.637 136.302V11.5567H370.363V136.302H371.637ZM369.64 138.299C370.743 138.299 371.637 137.405 371.637 136.302H370.363C370.363 136.701 370.039 137.024 369.64 137.024V138.299ZM1.35962 138.299H369.64V137.024H1.35962V138.299ZM-0.637321 136.302C-0.637321 137.405 0.256735 138.299 1.35962 138.299V137.024C0.960703 137.024 0.637321 136.701 0.637321 136.302H-0.637321ZM-0.637321 11.5567V136.302H0.637321V11.5567H-0.637321ZM6.32691 55.0646L6.32691 16.3154H5.05227L5.05227 55.0646H6.32691ZM5.00978 55.7019H5.68959V54.4273H5.00978V55.7019ZM4.37246 16.3154L4.37246 55.0646H5.6471L5.6471 16.3154H4.37246ZM5.68959 15.6781H5.00978V16.9528H5.68959V15.6781ZM5.05227 93.1338L5.05227 131.883H6.32691L6.32691 93.1338H5.05227ZM5.00979 93.7711L5.68959 93.7711L5.68958 92.4965L5.00977 92.4965L5.00979 93.7711ZM5.6471 131.883L5.6471 93.1338H4.37246L4.37246 131.883H5.6471ZM5.68959 131.246H5.00978V132.52H5.68959V131.246ZM367.286 126.487H248.44V127.762H367.286V126.487ZM367.923 133.922V127.124H366.649V133.922H367.923ZM242.118 134.56H367.286V133.285H242.118V134.56ZM247.973 126.69L241.651 133.488L242.585 134.356L248.906 127.558L247.973 126.69ZM135.012 36.1601C134.997 36.1601 134.985 36.1479 134.985 36.1328H136.26C136.26 35.4439 135.701 34.8855 135.012 34.8855V36.1601ZM135.04 36.1328C135.04 36.1479 135.027 36.1601 135.012 36.1601V34.8855C134.323 34.8855 133.765 35.4439 133.765 36.1328H135.04ZM135.04 97.1363V36.1328H133.765V97.1363H135.04ZM135.012 97.1091C135.027 97.1091 135.04 97.1213 135.04 97.1363H133.765C133.765 97.8252 134.323 98.3837 135.012 98.3837V97.1091ZM134.985 97.1363C134.985 97.1213 134.997 97.1091 135.012 97.1091V98.3837C135.701 98.3837 136.26 97.8252 136.26 97.1363H134.985ZM134.985 36.1328V97.1363H136.26V36.1328H134.985Z" fill="#D2ECFF" mask="url(#path-22-inside-1_73_517)"/>
</svg>
