<svg width="28" height="28" viewBox="0 0 28 28" fill="none" xmlns="http://www.w3.org/2000/svg">
<g clip-path="url(#clip0_57_193)">
<path d="M13.6708 27.6892C21.1067 27.6892 27.1348 21.6612 27.1348 14.2252C27.1348 6.78927 21.1067 0.76123 13.6708 0.76123C6.23482 0.76123 0.206787 6.78927 0.206787 14.2252C0.206787 21.6612 6.23482 27.6892 13.6708 27.6892Z" fill="#F4B731"/>
<path fill-rule="evenodd" clip-rule="evenodd" d="M8.01339 7.49323H13.5269C16.8803 7.49323 19.4224 9.27384 20.3683 11.864H22.0858V13.43H20.7301C20.7562 13.6774 20.7697 13.9299 20.7697 14.1857V14.2244C20.7697 14.5122 20.7529 14.7966 20.7192 15.0743H22.0858V16.6395H20.3355C19.3652 19.1943 16.8432 20.9572 13.5277 20.9572H8.01339V16.6395H6.09729V15.0743H8.01339V13.43H6.09729V11.8648H8.01339V7.49323ZM9.55417 16.6395V19.5528H13.5261C15.9782 19.5528 17.7992 18.3856 18.6466 16.6395H9.55417ZM19.1187 15.0743H9.55417V13.43H19.122C19.1565 13.6883 19.175 13.9534 19.175 14.2244V14.2623C19.175 14.5391 19.1557 14.8092 19.1187 15.0735V15.0743ZM13.5277 8.89432C15.99 8.89432 17.8169 10.0926 18.6592 11.8631H9.55417V8.89516H13.5261L13.5277 8.89432Z" fill="white"/>
</g>
<defs>
<clipPath id="clip0_57_193">
<rect width="26.928" height="26.928" fill="white" transform="translate(0.206787 0.76123)"/>
</clipPath>
</defs>
</svg>
