<svg width="33" height="30" viewBox="0 0 33 30" fill="none" xmlns="http://www.w3.org/2000/svg">
<g clip-path="url(#clip0_112_92)">
<path d="M30.4926 0.0316162L17.9835 9.3219L20.2972 3.84058L30.4926 0.0316162Z" fill="#E2761B" stroke="#E2761B" stroke-width="0.0632509" stroke-linecap="round" stroke-linejoin="round"/>
<path d="M1.61544 0.0316162L14.024 9.40982L11.8235 3.84058L1.61544 0.0316162Z" fill="#E4761B" stroke="#E4761B" stroke-width="0.0632509" stroke-linecap="round" stroke-linejoin="round"/>
<path d="M25.9917 21.5667L22.6602 26.671L29.7886 28.6318L31.8379 21.6799L25.9917 21.5667Z" fill="#E4761B" stroke="#E4761B" stroke-width="0.0632509" stroke-linecap="round" stroke-linejoin="round"/>
<path d="M0.29538 21.6799L2.33206 28.6318L9.46043 26.671L6.12901 21.5667L0.29538 21.6799Z" fill="#E4761B" stroke="#E4761B" stroke-width="0.0632509" stroke-linecap="round" stroke-linejoin="round"/>
<path d="M9.05813 12.9424L7.07142 15.9474L14.1492 16.2618L13.8981 8.65588L9.05813 12.9424Z" fill="#E4761B" stroke="#E4761B" stroke-width="0.0632509" stroke-linecap="round" stroke-linejoin="round"/>
<path d="M23.0499 12.9424L18.1473 8.56799L17.9835 16.2618L25.0493 15.9475L23.0499 12.9424Z" fill="#E4761B" stroke="#E4761B" stroke-width="0.0632509" stroke-linecap="round" stroke-linejoin="round"/>
<path d="M9.46046 26.671L13.7097 24.5964L10.0386 21.7299L9.46046 26.671Z" fill="#E4761B" stroke="#E4761B" stroke-width="0.0632509" stroke-linecap="round" stroke-linejoin="round"/>
<path d="M18.3984 24.5964L22.6603 26.671L22.0695 21.7299L18.3984 24.5964Z" fill="#E4761B" stroke="#E4761B" stroke-width="0.0632509" stroke-linecap="round" stroke-linejoin="round"/>
<path d="M22.6603 26.6709L18.3984 24.5963L18.7381 27.3749L18.7001 28.5438L22.6603 26.6709Z" fill="#D7C1B3" stroke="#D7C1B3" stroke-width="0.0632509" stroke-linecap="round" stroke-linejoin="round"/>
<path d="M9.46046 26.6709L13.4206 28.5438L13.3953 27.3749L13.7097 24.5963L9.46046 26.6709Z" fill="#D7C1B3" stroke="#D7C1B3" stroke-width="0.0632509" stroke-linecap="round" stroke-linejoin="round"/>
<path d="M13.4832 19.8949L9.93795 18.8512L12.4395 17.707L13.4832 19.8949Z" fill="#233447" stroke="#233447" stroke-width="0.0632509" stroke-linecap="round" stroke-linejoin="round"/>
<path d="M18.6248 19.8949L19.6685 17.707L22.1827 18.8512L18.6248 19.8949Z" fill="#233447" stroke="#233447" stroke-width="0.0632509" stroke-linecap="round" stroke-linejoin="round"/>
<path d="M9.4605 26.671L10.0639 21.5667L6.12908 21.6799L9.4605 26.671Z" fill="#CD6116" stroke="#CD6116" stroke-width="0.0632509" stroke-linecap="round" stroke-linejoin="round"/>
<path d="M22.0568 21.5667L22.6602 26.671L25.9917 21.6799L22.0568 21.5667Z" fill="#CD6116" stroke="#CD6116" stroke-width="0.0632509" stroke-linecap="round" stroke-linejoin="round"/>
<path d="M25.0493 15.9474L17.9835 16.2617L18.6375 19.8949L19.6812 17.707L22.1954 18.8512L25.0493 15.9474Z" fill="#CD6116" stroke="#CD6116" stroke-width="0.0632509" stroke-linecap="round" stroke-linejoin="round"/>
<path d="M9.93795 18.8512L12.4522 17.707L13.4832 19.8949L14.1492 16.2617L7.07142 15.9474L9.93795 18.8512Z" fill="#CD6116" stroke="#CD6116" stroke-width="0.0632509" stroke-linecap="round" stroke-linejoin="round"/>
<path d="M7.07142 15.9474L10.0385 21.7298L9.93795 18.8512L7.07142 15.9474Z" fill="#E4751F" stroke="#E4751F" stroke-width="0.0632509" stroke-linecap="round" stroke-linejoin="round"/>
<path d="M22.1953 18.8512L22.0695 21.7298L25.0492 15.9474L22.1953 18.8512Z" fill="#E4751F" stroke="#E4751F" stroke-width="0.0632509" stroke-linecap="round" stroke-linejoin="round"/>
<path d="M14.1493 16.2617L13.4832 19.8948L14.3131 24.1814L14.5016 18.5369L14.1493 16.2617Z" fill="#E4751F" stroke="#E4751F" stroke-width="0.0632509" stroke-linecap="round" stroke-linejoin="round"/>
<path d="M17.9834 16.2617L17.6444 18.5242L17.795 24.1814L18.6375 19.8948L17.9834 16.2617Z" fill="#E4751F" stroke="#E4751F" stroke-width="0.0632509" stroke-linecap="round" stroke-linejoin="round"/>
<path d="M18.6375 19.895L17.795 24.1815L18.3984 24.5964L22.0695 21.7299L22.1954 18.8513L18.6375 19.895Z" fill="#F6851B" stroke="#F6851B" stroke-width="0.0632509" stroke-linecap="round" stroke-linejoin="round"/>
<path d="M9.93795 18.8513L10.0385 21.7299L13.7096 24.5964L14.313 24.1815L13.4832 19.895L9.93795 18.8513Z" fill="#F6851B" stroke="#F6851B" stroke-width="0.0632509" stroke-linecap="round" stroke-linejoin="round"/>
<path d="M18.7001 28.5439L18.7381 27.375L18.4237 27.098H13.6844L13.3953 27.375L13.4206 28.5439L9.46046 26.671L10.8431 27.8019L13.6464 29.7507H18.4617L21.2776 27.8019L22.6603 26.671L18.7001 28.5439Z" fill="#C0AD9E" stroke="#C0AD9E" stroke-width="0.0632509" stroke-linecap="round" stroke-linejoin="round"/>
<path d="M18.3984 24.5963L17.795 24.1814H14.313L13.7096 24.5963L13.3952 27.3749L13.6843 27.0979H18.4237L18.738 27.3749L18.3984 24.5963Z" fill="#161616" stroke="#161616" stroke-width="0.0632509" stroke-linecap="round" stroke-linejoin="round"/>
<path d="M31.0208 9.92532L32.0891 4.7963L30.4926 0.0316162L18.3984 9.00755L23.0499 12.9424L29.6248 14.8658L31.0834 13.1688L30.4547 12.7166L31.4604 11.7988L30.6811 11.1954L31.6868 10.4282L31.0208 9.92532Z" fill="#763D16" stroke="#763D16" stroke-width="0.0632509" stroke-linecap="round" stroke-linejoin="round"/>
<path d="M0.0314293 4.79606L1.09974 9.92507L0.421055 10.4279L1.42674 11.1952L0.660143 11.7986L1.66583 12.7163L1.03712 13.1686L2.48303 14.8656L9.05796 12.9421L13.7094 9.0073L1.61523 0.0313721L0.0314293 4.79606Z" fill="#763D16" stroke="#763D16" stroke-width="0.0632509" stroke-linecap="round" stroke-linejoin="round"/>
<path d="M29.6248 14.8658L23.0499 12.9424L25.0492 15.9474L22.0695 21.7298L25.9917 21.6799H31.8379L29.6248 14.8658Z" fill="#F6851B" stroke="#F6851B" stroke-width="0.0632509" stroke-linecap="round" stroke-linejoin="round"/>
<path d="M9.05816 12.9424L2.48323 14.8658L0.29538 21.6799H6.12901L10.0385 21.7298L7.07145 15.9474L9.05816 12.9424Z" fill="#F6851B" stroke="#F6851B" stroke-width="0.0632509" stroke-linecap="round" stroke-linejoin="round"/>
<path d="M17.9835 16.2618L18.3984 9.00754L20.3099 3.84058H11.8235L13.7096 9.00754L14.1492 16.2618L14.3004 18.5496L14.3131 24.1814H17.795L17.8203 18.5496L17.9835 16.2618Z" fill="#F6851B" stroke="#F6851B" stroke-width="0.0632509" stroke-linecap="round" stroke-linejoin="round"/>
</g>
<defs>
<clipPath id="clip0_112_92">
<rect width="32.1207" height="29.7823" fill="white"/>
</clipPath>
</defs>
</svg>
