<svg width="70" height="77" viewBox="0 0 70 77" fill="none" xmlns="http://www.w3.org/2000/svg">
<path fill-rule="evenodd" clip-rule="evenodd" d="M38.1441 10.6169C28.9436 8.16289 20.7392 15.8452 20.7392 25.6574C20.7392 29.2683 21.851 32.5914 23.7141 35.2262C24.7623 36.708 26.7385 36.8436 27.9378 35.511C28.9622 34.3728 29.0753 32.56 28.1835 31.2913C27.0885 29.7328 26.438 27.7717 26.4416 25.6408C26.4495 20.6619 30.089 16.565 34.5691 16.4943C39.179 16.4216 42.937 20.552 42.937 25.6574C42.937 27.9318 42.1911 30.0137 40.9555 31.6153C39.9798 32.8802 40.031 34.7607 41.0916 35.9381C42.2671 37.2442 44.1911 37.1549 45.2747 35.7545C48.1011 32.1004 49.4215 26.9655 48.1639 21.5389C46.9097 16.13 43.0333 11.9201 38.145 10.6169H38.1441Z" fill="url(#paint0_linear_153_56)"/>
<path fill-rule="evenodd" clip-rule="evenodd" d="M48.1629 55.551C49.4206 50.1244 48.101 44.9894 45.2737 41.3354C44.1902 39.934 42.2661 39.8457 41.0906 41.1517C40.0309 42.3292 39.9797 44.2097 40.9545 45.4745C42.1901 47.0762 42.936 49.1581 42.936 51.4324C42.936 56.5379 39.1789 60.6683 34.5681 60.5956C30.0872 60.5249 26.4485 56.4279 26.4406 51.4491C26.437 49.3181 27.0884 47.3571 28.1826 45.7986C29.0743 44.5299 28.9612 42.7171 27.9369 41.5789C26.7375 40.2463 24.7613 40.3818 23.7131 41.8637C21.8492 44.4984 20.7382 47.8206 20.7382 51.4324C20.7382 61.2447 28.9426 68.926 38.1431 66.4729C43.0315 65.1688 46.9079 60.9599 48.162 55.551H48.1629Z" fill="url(#paint1_linear_153_56)"/>
<path fill-rule="evenodd" clip-rule="evenodd" d="M39.7666 51.2822C39.7666 54.3932 37.497 56.915 34.6971 56.915C31.8972 56.915 29.6276 54.3932 29.6276 51.2822C29.6276 49.3545 30.499 47.6536 31.8274 46.6382V30.4527C30.499 29.4373 29.6276 27.7364 29.6276 25.8087C29.6276 22.6977 31.8972 20.1749 34.6971 20.1749C37.497 20.1749 39.7666 22.6977 39.7666 25.8087C39.7666 27.7384 38.8934 29.4422 37.5615 30.4566V46.6343C38.8934 47.6487 39.7666 49.3525 39.7666 51.2822Z" fill="url(#paint2_linear_153_56)"/>
<path d="M34.69 75.9778C53.2965 75.9778 68.3801 59.2183 68.3801 38.5444C68.3801 17.8706 53.2965 1.11108 34.69 1.11108C16.0835 1.11108 1 17.8706 1 38.5444C1 59.2183 16.0835 75.9778 34.69 75.9778Z" stroke="url(#paint3_linear_153_56)" stroke-width="2" stroke-miterlimit="10"/>
<defs>
<linearGradient id="paint0_linear_153_56" x1="35.0128" y1="43.5409" x2="34.1552" y2="5.02997" gradientUnits="userSpaceOnUse">
<stop stop-color="#23C6DB"/>
<stop offset="0.36" stop-color="#364FC9"/>
<stop offset="0.72" stop-color="#895AE0"/>
<stop offset="0.95" stop-color="#C85AE0"/>
</linearGradient>
<linearGradient id="paint1_linear_153_56" x1="35.3423" y1="70.2586" x2="34.0171" y2="39.2908" gradientUnits="userSpaceOnUse">
<stop stop-color="#9EF4FF"/>
<stop offset="0.26" stop-color="#23C6DB"/>
<stop offset="0.78" stop-color="#364FC9"/>
<stop offset="0.99" stop-color="#364FC9"/>
</linearGradient>
<linearGradient id="paint2_linear_153_56" x1="35.7303" y1="60.4267" x2="33.4742" y2="21.7308" gradientUnits="userSpaceOnUse">
<stop offset="0.11" stop-color="#23C6DB"/>
<stop offset="0.59" stop-color="#364FC9"/>
<stop offset="1" stop-color="#895AE0"/>
</linearGradient>
<linearGradient id="paint3_linear_153_56" x1="0.778163" y1="38.5444" x2="68.601" y2="38.5444" gradientUnits="userSpaceOnUse">
<stop stop-color="#23C6DB"/>
<stop offset="0.36" stop-color="#364FC9"/>
<stop offset="0.72" stop-color="#895AE0"/>
<stop offset="0.95" stop-color="#C85AE0"/>
</linearGradient>
</defs>
</svg>
