<svg width="155" height="156" viewBox="0 0 155 156" fill="none" xmlns="http://www.w3.org/2000/svg" xmlns:xlink="http://www.w3.org/1999/xlink">
<g opacity="0.8">
<mask id="mask0_46_657" style="mask-type:luminance" maskUnits="userSpaceOnUse" x="0" y="0" width="155" height="156">
<path d="M154.791 0.625H0.375V155.041H154.791V0.625Z" fill="white"/>
</mask>
<g mask="url(#mask0_46_657)">
<g filter="url(#filter0_f_46_657)">
<path d="M154.791 0.625061H0.375031V155.042H154.791V0.625061Z" fill="#00061A"/>
<g filter="url(#filter1_f_46_657)">
<path d="M-3.18157 30.2796C7.73102 30.2796 16.5774 15.6091 16.5774 -2.48783C16.5774 -20.5848 7.73102 -35.2552 -3.18157 -35.2552C-14.0942 -35.2552 -22.9406 -20.5848 -22.9406 -2.48783C-22.9406 15.6091 -14.0942 30.2796 -3.18157 30.2796Z" fill="#848484" fill-opacity="0.5"/>
</g>
<g filter="url(#filter2_f_46_657)">
<path d="M31.6189 170.442C7.04368 134.931 14.7497 41.7073 22.4063 0.707027V-18.4619H-6.09604V170.442H31.6189Z" fill="#00061A"/>
</g>
<mask id="mask1_46_657" style="mask-type:luminance" maskUnits="userSpaceOnUse" x="82" y="-123" width="200" height="336">
<path d="M281.248 76.1783L183.375 -122.744L82.8195 13.3193L180.693 212.242L281.248 76.1783Z" fill="white"/>
</mask>
<g mask="url(#mask1_46_657)">
<g opacity="0.6">
<g opacity="0.7">
<path opacity="0.11" d="M133.523 31.4868C133.633 31.5452 133.75 31.4451 133.786 31.2632C133.821 31.0813 133.761 30.8865 133.651 30.8281C133.541 30.7696 133.424 30.8697 133.389 31.0517C133.353 31.2336 133.414 31.4284 133.523 31.4868Z" fill="white"/>
<path d="M133.817 33.6396C133.899 33.6835 133.987 33.6084 134.013 33.472C134.04 33.3356 133.995 33.1896 133.912 33.1457C133.83 33.1019 133.742 33.177 133.716 33.3134C133.689 33.4497 133.734 33.5958 133.817 33.6396Z" fill="white"/>
<path d="M137.763 31.9294C137.845 31.9733 137.933 31.8982 137.96 31.7618C137.986 31.6254 137.941 31.4794 137.859 31.4355C137.777 31.3917 137.688 31.4668 137.662 31.6031C137.635 31.7395 137.681 31.8857 137.763 31.9294Z" fill="white"/>
<path d="M129.389 27.1049C129.471 27.1487 129.559 27.0736 129.585 26.9372C129.612 26.8008 129.567 26.6547 129.484 26.6109C129.402 26.5672 129.314 26.6422 129.288 26.7786C129.261 26.915 129.306 27.0611 129.389 27.1049Z" fill="white"/>
<path opacity="0.11" d="M123.709 28.4384C123.819 28.4968 123.936 28.3968 123.971 28.2148C124.007 28.0329 123.946 27.8381 123.837 27.7797C123.727 27.7212 123.609 27.8214 123.574 28.0032C123.539 28.1852 123.599 28.38 123.709 28.4384Z" fill="white"/>
<path d="M122.525 23.8122C122.58 23.8415 122.638 23.7914 122.656 23.7006C122.674 23.6096 122.644 23.5123 122.589 23.4831C122.534 23.4539 122.475 23.5039 122.457 23.5948C122.44 23.6857 122.47 23.783 122.525 23.8122Z" fill="white"/>
<path d="M131.981 37.7472C132.036 37.7764 132.095 37.7264 132.112 37.6355C132.13 37.5447 132.1 37.4473 132.045 37.4181C131.99 37.3889 131.931 37.439 131.914 37.5298C131.896 37.6207 131.926 37.718 131.981 37.7472Z" fill="white"/>
<path d="M153.623 49.2749C153.678 49.3041 153.736 49.2541 153.754 49.1633C153.771 49.0724 153.741 48.975 153.686 48.9459C153.632 48.9167 153.573 48.9667 153.555 49.0575C153.538 49.1485 153.568 49.2458 153.623 49.2749Z" fill="white"/>
<path d="M99.7212 16.0247C99.7761 16.0539 99.8348 16.0039 99.8521 15.913C99.8699 15.8221 99.8398 15.7248 99.7849 15.6956C99.7301 15.6664 99.6713 15.7165 99.6536 15.8073C99.6363 15.8981 99.6664 15.9955 99.7212 16.0247Z" fill="white"/>
<path opacity="0.11" d="M99.9544 6.34243C100.009 6.37162 100.068 6.3216 100.086 6.23072C100.103 6.13985 100.073 6.04252 100.018 6.01333C99.9633 5.98414 99.905 6.03415 99.8872 6.12503C99.8694 6.2159 99.8995 6.31324 99.9544 6.34243Z" fill="white"/>
<path opacity="0.11" d="M94.9529 7.85566C95.0077 7.88485 95.0665 7.83484 95.0838 7.74396C95.1016 7.65308 95.0715 7.55576 95.0166 7.52658C94.9618 7.49739 94.903 7.54738 94.8857 7.63826C94.8679 7.72914 94.8981 7.82647 94.9529 7.85566Z" fill="white"/>
<path opacity="0.11" d="M96.3157 19.4779C96.3701 19.5071 96.4289 19.4571 96.4466 19.3662C96.4644 19.2753 96.4343 19.178 96.3795 19.1489C96.3246 19.1196 96.2659 19.1697 96.2481 19.2605C96.2308 19.3514 96.2609 19.4488 96.3157 19.4779Z" fill="white"/>
<path opacity="0.11" d="M121.217 25.4757C121.271 25.5049 121.33 25.4549 121.348 25.364C121.365 25.2731 121.335 25.1758 121.28 25.1466C121.225 25.1174 121.167 25.1674 121.149 25.2583C121.132 25.3491 121.162 25.4465 121.217 25.4757Z" fill="white"/>
<path opacity="0.11" d="M130.636 43.5698C130.69 43.599 130.749 43.5489 130.766 43.4581C130.784 43.3672 130.754 43.2699 130.699 43.2407C130.644 43.2115 130.586 43.2615 130.568 43.3524C130.551 43.4433 130.581 43.5406 130.636 43.5698Z" fill="white"/>
<path opacity="0.11" d="M150.014 52.0741C150.069 52.1033 150.127 52.0533 150.145 51.9624C150.162 51.8715 150.132 51.7742 150.078 51.745C150.023 51.7158 149.964 51.7658 149.947 51.8567C149.929 51.9476 149.959 52.0449 150.014 52.0741Z" fill="white"/>
<path opacity="0.3" d="M105.085 14.3417C105.14 14.3708 105.198 14.3209 105.216 14.2299C105.234 14.1391 105.204 14.0418 105.149 14.0125C105.094 13.9834 105.035 14.0334 105.018 14.1243C105 14.2151 105.03 14.3125 105.085 14.3417Z" fill="white"/>
<path d="M129.639 17.6124C129.694 17.6415 129.752 17.5915 129.77 17.5006C129.787 17.4098 129.757 17.3125 129.703 17.2832C129.648 17.2541 129.589 17.304 129.572 17.395C129.554 17.4858 129.584 17.5831 129.639 17.6124Z" fill="white"/>
<path d="M144.99 25.4263C145.045 25.4555 145.104 25.4054 145.121 25.3146C145.139 25.2237 145.109 25.1263 145.054 25.0972C144.999 25.068 144.94 25.118 144.922 25.2089C144.905 25.2998 144.935 25.3971 144.99 25.4263Z" fill="white"/>
<path d="M119.955 29.1628C120.01 29.1921 120.069 29.142 120.086 29.0512C120.104 28.9603 120.073 28.863 120.019 28.8338C119.964 28.8046 119.906 28.8546 119.888 28.9455C119.87 29.0363 119.9 29.1337 119.955 29.1628Z" fill="white"/>
<path opacity="0.3" d="M113.006 25.462C113.06 25.4911 113.119 25.4412 113.137 25.3502C113.155 25.2594 113.125 25.1621 113.07 25.1328C113.015 25.1037 112.956 25.1537 112.938 25.2446C112.921 25.3354 112.951 25.4327 113.006 25.462Z" fill="white"/>
<path opacity="0.11" d="M106.844 10.9201C106.899 10.9493 106.957 10.8993 106.975 10.8084C106.993 10.7175 106.962 10.6202 106.908 10.591C106.853 10.5619 106.794 10.6118 106.776 10.7028C106.759 10.7936 106.789 10.8909 106.844 10.9201Z" fill="white"/>
<path opacity="0.3" d="M130.661 22.5166C130.716 22.5458 130.774 22.4958 130.792 22.4049C130.81 22.314 130.78 22.2167 130.725 22.1875C130.67 22.1583 130.611 22.2083 130.594 22.2992C130.576 22.39 130.606 22.4874 130.661 22.5166Z" fill="white"/>
<path opacity="0.3" d="M121.037 33.1904C121.092 33.2196 121.151 33.1695 121.169 33.0787C121.186 32.9878 121.156 32.8905 121.101 32.8613C121.046 32.8321 120.988 32.8821 120.97 32.973C120.952 33.0639 120.982 33.1612 121.037 33.1904Z" fill="white"/>
<path opacity="0.3" d="M108.707 28.4382C108.761 28.4674 108.82 28.4174 108.838 28.3265C108.855 28.2357 108.825 28.1383 108.77 28.1092C108.716 28.0799 108.657 28.13 108.639 28.2208C108.622 28.3117 108.652 28.409 108.707 28.4382Z" fill="white"/>
<path opacity="0.3" d="M107.964 15.8758C108.019 15.9051 108.078 15.855 108.095 15.7642C108.113 15.6733 108.083 15.5759 108.028 15.5468C107.973 15.5176 107.914 15.5676 107.897 15.6585C107.879 15.7494 107.909 15.8467 107.964 15.8758Z" fill="white"/>
<path opacity="0.3" d="M140.351 42.024C140.461 42.0825 140.578 41.9824 140.613 41.8004C140.649 41.6185 140.588 41.4237 140.479 41.3653C140.369 41.3068 140.251 41.407 140.216 41.5888C140.181 41.7708 140.241 41.9656 140.351 42.024Z" fill="white"/>
<path opacity="0.11" d="M147.166 40.2061C147.275 40.2645 147.393 40.1644 147.428 39.9824C147.463 39.8006 147.403 39.6057 147.293 39.5473C147.183 39.4889 147.066 39.589 147.031 39.7709C146.996 39.9528 147.056 40.1476 147.166 40.2061Z" fill="white"/>
<path d="M148.232 34.418C148.314 34.4618 148.402 34.3868 148.429 34.2504C148.455 34.114 148.41 33.9679 148.327 33.9241C148.245 33.8803 148.157 33.9553 148.131 34.0917C148.105 34.2281 148.15 34.3743 148.232 34.418Z" fill="white"/>
<path d="M138.035 48.0558C138.117 48.0995 138.205 48.0245 138.231 47.8881C138.258 47.7517 138.213 47.6056 138.13 47.5618C138.048 47.518 137.96 47.5931 137.934 47.7295C137.907 47.8659 137.952 48.0119 138.035 48.0558Z" fill="white"/>
<path d="M106.47 31.7872C106.552 31.831 106.64 31.7559 106.666 31.6195C106.693 31.4831 106.648 31.3371 106.566 31.2933C106.483 31.2495 106.395 31.3245 106.369 31.4609C106.342 31.5973 106.387 31.7434 106.47 31.7872Z" fill="white"/>
<path d="M94.001 20.9696C94.083 21.0134 94.1714 20.9384 94.1976 20.802C94.2243 20.6656 94.1789 20.5195 94.0969 20.4757C94.0144 20.4319 93.9264 20.5069 93.8998 20.6433C93.8736 20.7797 93.9185 20.9258 94.001 20.9696Z" fill="white"/>
<path d="M93.5885 13.4856C93.6705 13.5294 93.7589 13.4544 93.7851 13.318C93.8118 13.1816 93.7663 13.0355 93.6843 12.9917C93.6019 12.9479 93.5139 13.0229 93.4872 13.1593C93.4611 13.2957 93.506 13.4418 93.5885 13.4856Z" fill="white"/>
<path d="M142.829 35.1731C142.912 35.217 143 35.1419 143.026 35.0055C143.053 34.8691 143.007 34.723 142.925 34.6793C142.843 34.6354 142.755 34.7105 142.729 34.8469C142.702 34.9833 142.747 35.1293 142.829 35.1731Z" fill="white"/>
<path d="M123.197 38.1548C123.279 38.1985 123.367 38.1235 123.394 37.9871C123.42 37.8507 123.375 37.7046 123.293 37.6608C123.21 37.617 123.122 37.6921 123.096 37.8285C123.069 37.9649 123.115 38.111 123.197 38.1548Z" fill="white"/>
<path d="M146.842 58.5583C146.924 58.602 147.012 58.527 147.039 58.3906C147.065 58.2542 147.02 58.1081 146.938 58.0643C146.855 58.0205 146.767 58.0956 146.741 58.232C146.715 58.3684 146.76 58.5144 146.842 58.5583Z" fill="white"/>
<path opacity="0.3" d="M105.222 24.9473C105.331 25.0057 105.449 24.9056 105.484 24.7237C105.519 24.5418 105.459 24.347 105.349 24.2885C105.239 24.2301 105.122 24.3302 105.087 24.5121C105.051 24.694 105.112 24.8888 105.222 24.9473Z" fill="white"/>
<path opacity="0.3" d="M98.9338 11.61C99.0435 11.6684 99.1611 11.5683 99.1961 11.3863C99.2312 11.2045 99.171 11.0096 99.0613 10.9512C98.9516 10.8928 98.8341 10.9929 98.799 11.1747C98.7639 11.3567 98.8242 11.5515 98.9338 11.61Z" fill="white"/>
<path opacity="0.3" d="M114.213 13.5742C114.323 13.6327 114.441 13.5325 114.476 13.3506C114.511 13.1687 114.451 12.9739 114.341 12.9155C114.231 12.857 114.114 12.9571 114.079 13.1391C114.044 13.321 114.104 13.5158 114.213 13.5742Z" fill="white"/>
<path opacity="0.11" d="M112.171 8.85394C112.281 8.91235 112.398 8.81227 112.433 8.63035C112.468 8.44844 112.408 8.25362 112.298 8.19519C112.189 8.13677 112.071 8.23687 112.036 8.41878C112.001 8.60069 112.061 8.79553 112.171 8.85394Z" fill="white"/>
<path opacity="0.3" d="M109.336 18.9669C109.446 19.0253 109.563 18.9252 109.599 18.7433C109.634 18.5614 109.574 18.3666 109.464 18.3082C109.354 18.2497 109.237 18.3498 109.202 18.5318C109.166 18.7137 109.226 18.9085 109.336 18.9669Z" fill="white"/>
<path d="M115.572 22.1069C115.654 22.1507 115.742 22.0756 115.769 21.9393C115.795 21.8029 115.75 21.6567 115.668 21.613C115.586 21.5691 115.497 21.6442 115.471 21.7806C115.444 21.917 115.49 22.063 115.572 22.1069Z" fill="white"/>
</g>
</g>
</g>
<mask id="mask2_46_657" style="mask-type:luminance" maskUnits="userSpaceOnUse" x="-63" y="-136" width="178" height="262">
<path d="M-62.7548 75.9744L89.1428 125.578L114.217 -85.5907L-37.6802 -135.194L-62.7548 75.9744Z" fill="white"/>
</mask>
<g mask="url(#mask2_46_657)">
<g opacity="0.6">
<g opacity="0.7">
<path opacity="0.11" d="M46.5647 25.3307C46.4578 25.4017 46.4058 25.6032 46.4487 25.7805C46.4916 25.9579 46.613 26.044 46.7199 25.973C46.8269 25.9019 46.8788 25.7004 46.836 25.5231C46.7931 25.3458 46.6717 25.2596 46.5647 25.3307Z" fill="white"/>
<path d="M45.5091 23.9831C45.4288 24.0364 45.3899 24.1874 45.422 24.3204C45.4542 24.4533 45.5452 24.518 45.6254 24.4646C45.7056 24.4113 45.7445 24.2603 45.7124 24.1274C45.6803 23.9944 45.5892 23.9298 45.5091 23.9831Z" fill="white"/>
<path d="M43.1293 29.4759C43.0491 29.5292 43.0102 29.6802 43.0423 29.8132C43.0744 29.9462 43.1655 30.0107 43.2456 29.9575C43.3259 29.9042 43.3648 29.7532 43.3327 29.6201C43.3005 29.4872 43.2095 29.4226 43.1293 29.4759Z" fill="white"/>
<path d="M51.4338 24.3297C51.3532 24.383 51.3147 24.534 51.3468 24.6669C51.3789 24.8 51.4698 24.8645 51.5498 24.8112C51.6304 24.7579 51.6689 24.6069 51.6368 24.4739C51.6047 24.341 51.5138 24.2763 51.4338 24.3297Z" fill="white"/>
<path opacity="0.11" d="M55.2937 17.2933C55.1865 17.3644 55.1346 17.5658 55.1776 17.7432C55.2206 17.9204 55.3421 18.0066 55.4488 17.9355C55.556 17.8645 55.6078 17.6631 55.5649 17.4857C55.5219 17.3083 55.4004 17.2222 55.2937 17.2933Z" fill="white"/>
<path d="M57.9853 19.602C57.932 19.6376 57.9063 19.7382 57.9275 19.8268C57.9488 19.9154 58.0095 19.9584 58.0629 19.9229C58.1162 19.8874 58.1424 19.7868 58.1212 19.6982C58.0994 19.6096 58.0387 19.5666 57.9853 19.602Z" fill="white"/>
<path d="M45.3427 18.8781C45.2893 18.9136 45.2634 19.0142 45.2847 19.1029C45.3062 19.1914 45.3668 19.2345 45.4203 19.199C45.4737 19.1635 45.4997 19.0628 45.4782 18.9743C45.4569 18.8856 45.3961 18.8426 45.3427 18.8781Z" fill="white"/>
<path d="M24.2438 32.901C24.1904 32.9366 24.1645 33.0372 24.1858 33.1257C24.2073 33.2144 24.2679 33.2574 24.3213 33.2219C24.3748 33.1864 24.4007 33.0858 24.3793 32.9972C24.3579 32.9086 24.2972 32.8656 24.2438 32.901Z" fill="white"/>
<path d="M15.79 48.5804C15.7366 48.6159 15.7107 48.7165 15.7321 48.8051C15.7535 48.8937 15.8142 48.9368 15.8676 48.9012C15.921 48.8658 15.947 48.7651 15.9256 48.6765C15.9041 48.5879 15.8435 48.5449 15.79 48.5804Z" fill="white"/>
<path d="M9.1832 39.3725C9.12976 39.408 9.10382 39.5086 9.12526 39.5972C9.14665 39.6858 9.20731 39.7288 9.26076 39.6934C9.31416 39.6578 9.34014 39.5572 9.3187 39.4687C9.29731 39.38 9.2366 39.337 9.1832 39.3725Z" fill="white"/>
<path d="M78.5406 1.46924C78.4867 1.50475 78.4611 1.60536 78.4823 1.69396C78.504 1.78255 78.5643 1.82559 78.6181 1.79008C78.6715 1.75457 78.6972 1.65396 78.6759 1.56536C78.6547 1.47676 78.5939 1.43373 78.5406 1.46924Z" fill="white"/>
<path opacity="0.11" d="M82.0858 9.17112C82.0325 9.20668 82.0063 9.30727 82.028 9.39591C82.0493 9.48446 82.11 9.52747 82.1634 9.492C82.2167 9.45645 82.2429 9.35585 82.2212 9.2673C82.1999 9.17866 82.1392 9.13565 82.0858 9.17112Z" fill="white"/>
<path opacity="0.11" d="M85.355 2.71375C85.3016 2.74926 85.2754 2.84986 85.2967 2.93846C85.3184 3.02706 85.3792 3.07009 85.4325 3.03458C85.4859 2.99907 85.5121 2.89846 85.4903 2.80986C85.4691 2.72127 85.4083 2.67824 85.355 2.71375Z" fill="white"/>
<path opacity="0.11" d="M58.3528 16.9372C58.2995 16.9727 58.2733 17.0733 58.295 17.1619C58.3163 17.2505 58.377 17.2935 58.4304 17.2581C58.4837 17.2225 58.5099 17.1219 58.4881 17.0333C58.4669 16.9447 58.4062 16.9017 58.3528 16.9372Z" fill="white"/>
<path opacity="0.11" d="M44.1385 12.9713C44.0851 13.0068 44.0591 13.1074 44.0806 13.196C44.102 13.2846 44.1626 13.3276 44.2161 13.2922C44.2695 13.2566 44.2955 13.156 44.274 13.0674C44.2526 12.9788 44.192 12.9358 44.1385 12.9713Z" fill="white"/>
<path opacity="0.11" d="M25.9455 26.9277C25.8921 26.9632 25.8661 27.0638 25.8876 27.1524C25.909 27.241 25.9696 27.284 26.0231 27.2485C26.0765 27.213 26.1025 27.1124 26.081 27.0238C26.0596 26.9352 25.999 26.8922 25.9455 26.9277Z" fill="white"/>
<path opacity="0.3" d="M75.0576 8.44086C75.0043 8.47637 74.9781 8.57698 74.9998 8.66558C75.0211 8.75418 75.0818 8.79721 75.1352 8.7617C75.1885 8.72619 75.2147 8.62558 75.193 8.53698C75.1717 8.44839 75.111 8.40535 75.0576 8.44086Z" fill="white"/>
<path d="M54.8936 31.9034C54.8402 31.939 54.814 32.0396 54.8353 32.1282C54.857 32.2168 54.9178 32.2598 54.9711 32.2243C55.0245 32.1887 55.0501 32.0882 55.0289 31.9996C55.0077 31.911 54.9469 31.868 54.8936 31.9034Z" fill="white"/>
<path d="M40.0666 42.1306C40.0132 42.1662 39.9872 42.2667 40.0086 42.3553C40.03 42.4439 40.0907 42.4869 40.1441 42.4515C40.1976 42.4159 40.2235 42.3153 40.2021 42.2267C40.1807 42.1381 40.12 42.0951 40.0666 42.1306Z" fill="white"/>
<path d="M57.9053 12.763C57.852 12.7985 57.8263 12.8991 57.8475 12.9877C57.8687 13.0763 57.9295 13.1193 57.9829 13.0839C58.0367 13.0483 58.0624 12.9477 58.0411 12.8592C58.0194 12.7705 57.9591 12.7275 57.9053 12.763Z" fill="white"/>
<path opacity="0.3" d="M64.6802 8.26001C64.6268 8.29551 64.6006 8.39614 64.6224 8.48473C64.6436 8.57333 64.7044 8.61636 64.7577 8.58085C64.8111 8.54533 64.8373 8.44473 64.8155 8.35613C64.7943 8.26753 64.7335 8.2245 64.6802 8.26001Z" fill="white"/>
<path opacity="0.11" d="M75.02 12.936C74.9667 12.9715 74.9405 13.0721 74.9622 13.1607C74.9835 13.2493 75.0443 13.2923 75.0976 13.2568C75.1509 13.2213 75.1771 13.1207 75.1554 13.0321C75.1342 12.9435 75.0734 12.9005 75.02 12.936Z" fill="white"/>
<path opacity="0.3" d="M52.2191 29.2092C52.1658 29.2447 52.1396 29.3453 52.1613 29.4339C52.1826 29.5225 52.2433 29.5656 52.2967 29.53C52.35 29.4946 52.3762 29.394 52.3545 29.3053C52.3332 29.2168 52.2725 29.1737 52.2191 29.2092Z" fill="white"/>
<path opacity="0.3" d="M55.5224 10.807C55.469 10.8425 55.4433 10.9431 55.4646 11.0317C55.4858 11.1203 55.5466 11.1633 55.5999 11.1279C55.6533 11.0923 55.6795 10.9917 55.6582 10.9031C55.6365 10.8145 55.5757 10.7715 55.5224 10.807Z" fill="white"/>
<path opacity="0.3" d="M66.8452 1.41858C66.7919 1.45409 66.7662 1.5547 66.7874 1.6433C66.8087 1.7319 66.8694 1.77493 66.9228 1.73942C66.9766 1.70391 67.0023 1.6033 66.9811 1.5147C66.9593 1.42611 66.8991 1.38307 66.8452 1.41858Z" fill="white"/>
<path opacity="0.3" d="M72.2508 10.3056C72.197 10.341 72.1713 10.4417 72.1925 10.5303C72.2142 10.6189 72.2745 10.6619 72.3283 10.6264C72.3817 10.5909 72.4074 10.4903 72.3861 10.4016C72.3649 10.3131 72.3041 10.27 72.2508 10.3056Z" fill="white"/>
<path opacity="0.3" d="M12.1704 50.7996C12.117 50.8352 12.0911 50.9358 12.1124 51.0244C12.1339 51.1129 12.1945 51.1559 12.248 51.1205C12.3014 51.0849 12.3274 50.9843 12.3059 50.8958C12.2845 50.8071 12.2238 50.7641 12.1704 50.7996Z" fill="white"/>
<path opacity="0.11" d="M29.3426 47.0233C29.2892 47.0588 29.2632 47.1594 29.2846 47.248C29.3061 47.3366 29.3667 47.3797 29.4201 47.3441C29.4736 47.3087 29.4995 47.2081 29.4781 47.1194C29.4567 47.0309 29.396 46.9878 29.3426 47.0233Z" fill="white"/>
<path opacity="0.11" d="M13.1156 42.1619C13.0621 42.1974 13.0362 42.2981 13.0576 42.3866C13.079 42.4753 13.1397 42.5183 13.1931 42.4828C13.2465 42.4473 13.2725 42.3467 13.2511 42.258C13.2297 42.1695 13.169 42.1264 13.1156 42.1619Z" fill="white"/>
<path opacity="0.3" d="M37.2517 24.4416C37.1448 24.5127 37.0928 24.7141 37.1357 24.8914C37.1786 25.0688 37.3 25.155 37.4069 25.0839C37.5139 25.0128 37.5658 24.8114 37.523 24.634C37.4801 24.4567 37.3586 24.3705 37.2517 24.4416Z" fill="white"/>
<path opacity="0.11" d="M32.7057 33.0523C32.5987 33.1233 32.5467 33.3248 32.5896 33.5021C32.6325 33.6795 32.7539 33.7656 32.8609 33.6944C32.9678 33.6234 33.0198 33.422 32.9769 33.2446C32.934 33.0673 32.8126 32.9812 32.7057 33.0523Z" fill="white"/>
<path d="M34.1107 38.6373C34.0305 38.6906 33.9916 38.8416 34.0237 38.9746C34.0559 39.1076 34.1469 39.1721 34.2271 39.1189C34.3073 39.0655 34.3462 38.9146 34.3141 38.7816C34.282 38.6486 34.1909 38.584 34.1107 38.6373Z" fill="white"/>
<path d="M36.7153 17.3466C36.6351 17.3999 36.5961 17.5509 36.6283 17.6838C36.6604 17.8168 36.7514 17.8814 36.8317 17.8281C36.9118 17.7749 36.9508 17.6238 36.9186 17.4908C36.8865 17.3579 36.7954 17.2933 36.7153 17.3466Z" fill="white"/>
<path d="M3.80883 35.4933C3.72865 35.5467 3.6897 35.6976 3.72184 35.8307C3.75398 35.9636 3.84503 36.0282 3.92521 35.9749C4.0054 35.9216 4.04435 35.7706 4.01222 35.6377C3.98007 35.5046 3.88901 35.4401 3.80883 35.4933Z" fill="white"/>
<path d="M37.9799 32.3393C37.8997 32.3925 37.8608 32.5435 37.8929 32.6765C37.925 32.8095 38.0161 32.874 38.0963 32.8208C38.1765 32.7675 38.2154 32.6165 38.1833 32.4835C38.1511 32.3505 38.0601 32.2859 37.9799 32.3393Z" fill="white"/>
<path d="M51.9494 9.26995C51.8694 9.32328 51.8304 9.47425 51.8625 9.60721C51.8946 9.74024 51.986 9.80479 52.066 9.75155C52.146 9.69822 52.1851 9.54724 52.153 9.41421C52.1208 9.28125 52.03 9.2167 51.9494 9.26995Z" fill="white"/>
<path d="M25.8929 18.579C25.8127 18.6323 25.7737 18.7833 25.8059 18.9163C25.838 19.0492 25.9291 19.1138 26.0093 19.0605C26.0894 19.0073 26.1284 18.8562 26.0963 18.7233C26.0641 18.5903 25.9731 18.5257 25.8929 18.579Z" fill="white"/>
<path d="M2.88439 46.5401C2.80421 46.5935 2.76526 46.7444 2.7974 46.8774C2.82954 47.0103 2.92059 47.075 3.00078 47.0216C3.08096 46.9684 3.1199 46.8173 3.08777 46.6844C3.05563 46.5514 2.96457 46.4868 2.88439 46.5401Z" fill="white"/>
<path d="M2.69482 56.9107C2.61463 56.9639 2.57569 57.115 2.60783 57.2479C2.63997 57.3809 2.73102 57.4455 2.8112 57.3922C2.89139 57.3389 2.93033 57.1879 2.89819 57.0549C2.86605 56.922 2.775 56.8573 2.69482 56.9107Z" fill="white"/>
<path opacity="0.3" d="M26.0876 43.7843C25.9806 43.8554 25.9287 44.0568 25.9715 44.2341C26.0144 44.4115 26.1359 44.4976 26.2428 44.4265C26.3497 44.3554 26.4017 44.1541 26.3588 43.9767C26.316 43.7994 26.1945 43.7133 26.0876 43.7843Z" fill="white"/>
<path d="M28.8426 55.1792C28.7357 55.2503 28.6837 55.4516 28.7266 55.629C28.7694 55.8063 28.8909 55.8924 28.9979 55.8214C29.1047 55.7503 29.1567 55.5489 29.1138 55.3716C29.071 55.1942 28.9495 55.1081 28.8426 55.1792Z" fill="white"/>
<path d="M20.2497 43.5659C20.1695 43.6191 20.1306 43.7701 20.1627 43.9032C20.1948 44.0361 20.2859 44.1007 20.3661 44.0474C20.4463 43.9941 20.4852 43.8431 20.4531 43.7101C20.4209 43.5771 20.3299 43.5126 20.2497 43.5659Z" fill="white"/>
<path opacity="0.3" d="M17.0684 52.9452C16.9615 53.0164 16.9095 53.2178 16.9524 53.3951C16.9952 53.5724 17.1167 53.6586 17.2236 53.5875C17.3305 53.5164 17.3825 53.315 17.3396 53.1377C17.2968 52.9603 17.1753 52.8742 17.0684 52.9452Z" fill="white"/>
<path opacity="0.3" d="M4.73371 47.9185C4.62677 47.9896 4.57483 48.191 4.61769 48.3683C4.66056 48.5457 4.78199 48.6318 4.88893 48.5607C4.99588 48.4896 5.04782 48.2883 5.00495 48.1109C4.96209 47.9336 4.84065 47.8474 4.73371 47.9185Z" fill="white"/>
<path opacity="0.3" d="M15.9797 40.0714C15.8728 40.1425 15.8208 40.3439 15.8637 40.5213C15.9065 40.6986 16.028 40.7848 16.1349 40.7137C16.2419 40.6426 16.2938 40.4412 16.2509 40.2639C16.2081 40.0865 16.0866 40.0003 15.9797 40.0714Z" fill="white"/>
<path opacity="0.3" d="M70.8721 0.419029C70.7654 0.490112 70.7131 0.69151 70.7561 0.868857C70.799 1.0462 70.9206 1.13234 71.0273 1.06126C71.1344 0.990177 71.1863 0.788788 71.1433 0.611441C71.1004 0.434095 70.9793 0.347946 70.8721 0.419029Z" fill="white"/>
<path opacity="0.3" d="M80.846 4.0353C80.7388 4.10638 80.6869 4.30779 80.7299 4.48513C80.7729 4.66248 80.8944 4.74861 81.0011 4.67753C81.1083 4.60645 81.1601 4.40506 81.1172 4.22771C81.0742 4.05036 80.9527 3.96422 80.846 4.0353Z" fill="white"/>
<path opacity="0.11" d="M9.86547 50.0959C9.75853 50.167 9.70656 50.3683 9.74944 50.5457C9.79232 50.723 9.91374 50.8092 10.0207 50.7381C10.1276 50.667 10.1796 50.4657 10.1367 50.2883C10.0938 50.111 9.97242 50.0249 9.86547 50.0959Z" fill="white"/>
<path opacity="0.3" d="M68.3252 18.6906C68.218 18.7617 68.1662 18.9631 68.2091 19.1405C68.2516 19.3178 68.3731 19.404 68.4803 19.3329C68.587 19.2618 68.6389 19.0604 68.5964 18.8831C68.5534 18.7057 68.4319 18.6195 68.3252 18.6906Z" fill="white"/>
<path opacity="0.11" d="M71.7139 20.1642C71.6067 20.2353 71.5548 20.4366 71.5978 20.614C71.6408 20.7913 71.7623 20.8775 71.869 20.8064C71.9762 20.7353 72.0281 20.534 71.9851 20.3566C71.9421 20.1793 71.8206 20.0932 71.7139 20.1642Z" fill="white"/>
<path opacity="0.3" d="M70.0042 9.37742C69.897 9.44845 69.8451 9.64988 69.8881 9.82724C69.9311 10.0046 70.0526 10.0907 70.1593 10.0196C70.2665 9.94856 70.3184 9.74712 70.2754 9.56977C70.2324 9.39241 70.1109 9.30632 70.0042 9.37742Z" fill="white"/>
<path d="M63.995 13.5584C63.915 13.6117 63.876 13.7627 63.9081 13.8957C63.9402 14.0286 64.0311 14.0933 64.1116 14.04C64.1916 13.9866 64.2307 13.8356 64.1986 13.7027C64.1664 13.5697 64.0756 13.5051 63.995 13.5584Z" fill="white"/>
<path d="M1.0174 28.2811C0.963979 28.3166 0.93803 28.4171 0.959444 28.5058C0.980858 28.5943 1.04152 28.6374 1.09495 28.6019C1.14837 28.5664 1.17432 28.4658 1.1529 28.3772C1.1315 28.2886 1.07083 28.2455 1.0174 28.2811Z" fill="white"/>
<path d="M21.5723 10.1482C21.5189 10.1837 21.4929 10.2843 21.5143 10.3729C21.5358 10.4615 21.5964 10.5045 21.6498 10.4691C21.7033 10.4335 21.7292 10.3329 21.7078 10.2443C21.6864 10.1557 21.6257 10.1127 21.5723 10.1482Z" fill="white"/>
<path opacity="0.11" d="M25.1178 17.8502C25.0644 17.8857 25.0384 17.9863 25.0599 18.0749C25.0813 18.1634 25.142 18.2065 25.1954 18.171C25.2488 18.1355 25.2748 18.0349 25.2533 17.9463C25.2319 17.8576 25.1713 17.8146 25.1178 17.8502Z" fill="white"/>
<path opacity="0.11" d="M28.3869 11.3927C28.3334 11.4281 28.3075 11.5287 28.3289 11.6174C28.3503 11.7059 28.411 11.749 28.4644 11.7135C28.5178 11.678 28.5438 11.5773 28.5224 11.4888C28.501 11.4001 28.4403 11.3571 28.3869 11.3927Z" fill="white"/>
<path opacity="0.11" d="M22.8659 3.88538C22.8124 3.92089 22.7865 4.0215 22.8079 4.1101C22.8293 4.1987 22.89 4.24174 22.9434 4.20623C22.9968 4.17072 23.0228 4.0701 23.0014 3.9815C22.98 3.8929 22.9193 3.84986 22.8659 3.88538Z" fill="white"/>
<path opacity="0.11" d="M1.38471 25.6161C1.33128 25.6516 1.30534 25.7522 1.32675 25.8408C1.34817 25.9294 1.40883 25.9725 1.46226 25.9369C1.51568 25.9014 1.54164 25.8008 1.52022 25.7122C1.49881 25.6236 1.43814 25.5806 1.38471 25.6161Z" fill="white"/>
<path opacity="0.3" d="M18.0896 17.1198C18.0362 17.1553 18.0102 17.2559 18.0316 17.3445C18.053 17.4331 18.1137 17.4762 18.1671 17.4406C18.2206 17.4052 18.2465 17.3046 18.2251 17.2159C18.2037 17.1273 18.143 17.0843 18.0896 17.1198Z" fill="white"/>
<path d="M0.937447 21.4418C0.884019 21.4774 0.858074 21.578 0.879489 21.6666C0.900903 21.7552 0.961568 21.7982 1.01499 21.7627C1.06841 21.7272 1.09437 21.6265 1.07296 21.538C1.05155 21.4494 0.990871 21.4063 0.937447 21.4418Z" fill="white"/>
<path opacity="0.3" d="M7.71213 16.9387C7.65873 16.9742 7.63275 17.0748 7.65419 17.1635C7.67557 17.252 7.73624 17.2951 7.78968 17.2595C7.84308 17.2241 7.86906 17.1235 7.84763 17.0348C7.82624 16.9462 7.76558 16.9032 7.71213 16.9387Z" fill="white"/>
<path opacity="0.11" d="M18.052 21.615C17.9986 21.6505 17.9726 21.7511 17.994 21.8397C18.0154 21.9283 18.0761 21.9714 18.1295 21.9358C18.183 21.9003 18.2089 21.7997 18.1875 21.7111C18.1661 21.6225 18.1054 21.5795 18.052 21.615Z" fill="white"/>
<path opacity="0.3" d="M9.87736 10.0976C9.82391 10.1331 9.79798 10.2338 9.81941 10.3223C9.8408 10.411 9.90146 10.454 9.95491 10.4185C10.0083 10.3829 10.0343 10.2823 10.0129 10.1937C9.99147 10.1051 9.93076 10.0621 9.87736 10.0976Z" fill="white"/>
<path opacity="0.3" d="M15.2826 18.9847C15.2291 19.0202 15.2032 19.1208 15.2246 19.2094C15.246 19.298 15.3067 19.341 15.3601 19.3055C15.4135 19.27 15.4394 19.1694 15.4181 19.0808C15.3966 18.9922 15.336 18.9492 15.2826 18.9847Z" fill="white"/>
<path d="M10.3112 5.15211C10.2311 5.20541 10.1921 5.35641 10.2242 5.48939C10.2564 5.62236 10.3474 5.68694 10.4276 5.63364C10.5078 5.58035 10.5468 5.42936 10.5146 5.29638C10.4825 5.16341 10.3914 5.09881 10.3112 5.15211Z" fill="white"/>
<path d="M24.0741 0.287793C23.9939 0.34109 23.9549 0.492096 23.9871 0.625068C24.0192 0.758041 24.1103 0.822624 24.1905 0.769327C24.2706 0.71603 24.3096 0.565032 24.2775 0.432059C24.2453 0.299087 24.1543 0.234496 24.0741 0.287793Z" fill="white"/>
<path d="M27.2713 5.61396C27.1911 5.66726 27.1521 5.81827 27.1843 5.95124C27.2164 6.08421 27.3075 6.14879 27.3876 6.0955C27.4678 6.0422 27.5068 5.8912 27.4746 5.75823C27.4425 5.62526 27.3514 5.56067 27.2713 5.61396Z" fill="white"/>
<path opacity="0.3" d="M13.9041 9.09776C13.7971 9.16878 13.7452 9.37022 13.7881 9.54757C13.8309 9.72493 13.9524 9.81102 14.0593 9.73992C14.1663 9.6689 14.2182 9.46746 14.1753 9.2901C14.1325 9.11275 14.011 9.02665 13.9041 9.09776Z" fill="white"/>
<path opacity="0.3" d="M23.8772 12.7138C23.7702 12.7849 23.7183 12.9862 23.7611 13.1636C23.804 13.3409 23.9254 13.4271 24.0324 13.356C24.1393 13.2849 24.1913 13.0836 24.1484 12.9062C24.1056 12.7288 23.9841 12.6427 23.8772 12.7138Z" fill="white"/>
<path opacity="0.3" d="M11.3569 27.3697C11.25 27.4408 11.198 27.6422 11.2409 27.8195C11.2837 27.9969 11.4052 28.083 11.5121 28.0119C11.6191 27.9409 11.671 27.7395 11.6281 27.5621C11.5853 27.3848 11.4638 27.2987 11.3569 27.3697Z" fill="white"/>
<path opacity="0.11" d="M14.7451 28.8427C14.6382 28.9138 14.5862 29.1151 14.6291 29.2925C14.672 29.4699 14.7934 29.5559 14.9004 29.4849C15.0073 29.4138 15.0593 29.2125 15.0164 29.0351C14.9735 28.8578 14.8521 28.7716 14.7451 28.8427Z" fill="white"/>
<path opacity="0.3" d="M13.0367 18.0566C12.9298 18.1277 12.8778 18.3291 12.9207 18.5064C12.9636 18.6838 13.085 18.7699 13.1919 18.6989C13.2989 18.6277 13.3509 18.4264 13.308 18.249C13.2651 18.0717 13.1437 17.9855 13.0367 18.0566Z" fill="white"/>
<path d="M7.02704 22.2375C6.94687 22.2908 6.90789 22.4418 6.94005 22.5747C6.97221 22.7078 7.06325 22.7723 7.14342 22.719C7.22359 22.6657 7.26256 22.5147 7.23041 22.3817C7.1983 22.2488 7.10721 22.1842 7.02704 22.2375Z" fill="white"/>
</g>
</g>
</g>
<g filter="url(#filter3_f_46_657)">
<path d="M58.3717 293.21C85.7846 310.804 116.607 288.213 127.216 242.753C137.825 197.292 124.203 146.177 96.7899 128.584C69.377 110.991 38.5543 133.581 27.9454 179.042C17.3365 224.502 30.9588 275.617 58.3717 293.21Z" fill="url(#paint0_radial_46_657)"/>
</g>
<path d="M154.791 0.625061H0.375031V155.042H154.791V0.625061Z" fill="url(#pattern0)" fill-opacity="0.1"/>
<path d="M154.791 -21.2472H0.375031V201.899H154.791V-21.2472Z" fill="url(#pattern1)" fill-opacity="0.08"/>
</g>
</g>
</g>
<defs>
<filter id="filter0_f_46_657" x="-24.2833" y="-36.598" width="180.418" height="337.124" filterUnits="userSpaceOnUse" color-interpolation-filters="sRGB">
<feFlood flood-opacity="0" result="BackgroundImageFix"/>
<feBlend mode="normal" in="SourceGraphic" in2="BackgroundImageFix" result="shape"/>
<feGaussianBlur stdDeviation="0.671376" result="effect1_foregroundBlur_46_657"/>
</filter>
<filter id="filter1_f_46_657" x="-47.6393" y="-59.954" width="88.9154" height="114.932" filterUnits="userSpaceOnUse" color-interpolation-filters="sRGB">
<feFlood flood-opacity="0" result="BackgroundImageFix"/>
<feBlend mode="normal" in="SourceGraphic" in2="BackgroundImageFix" result="shape"/>
<feGaussianBlur stdDeviation="12.3494" result="effect1_foregroundBlur_46_657"/>
</filter>
<filter id="filter2_f_46_657" x="-25.855" y="-38.2209" width="77.2329" height="228.422" filterUnits="userSpaceOnUse" color-interpolation-filters="sRGB">
<feFlood flood-opacity="0" result="BackgroundImageFix"/>
<feBlend mode="normal" in="SourceGraphic" in2="BackgroundImageFix" result="shape"/>
<feGaussianBlur stdDeviation="9.87949" result="effect1_foregroundBlur_46_657"/>
</filter>
<filter id="filter3_f_46_657" x="-29.9935" y="68.274" width="215.149" height="285.247" filterUnits="userSpaceOnUse" color-interpolation-filters="sRGB">
<feFlood flood-opacity="0" result="BackgroundImageFix"/>
<feBlend mode="normal" in="SourceGraphic" in2="BackgroundImageFix" result="shape"/>
<feGaussianBlur stdDeviation="27.1686" result="effect1_foregroundBlur_46_657"/>
</filter>
<pattern id="pattern0" patternContentUnits="objectBoundingBox" width="1" height="1">
<use xlink:href="#image0_46_657" transform="matrix(0.0015625 0 0 0.00259118 0 -0.329178)"/>
</pattern>
<pattern id="pattern1" patternContentUnits="objectBoundingBox" width="1" height="1">
<use xlink:href="#image1_46_657" transform="scale(0.000488281)"/>
</pattern>
<radialGradient id="paint0_radial_46_657" cx="0" cy="0" r="1" gradientUnits="userSpaceOnUse" gradientTransform="translate(79.7117 229.257) rotate(108.453) scale(67.4195 47.783)">
<stop offset="1" stop-color="#CAE9FF" stop-opacity="0.5"/>
</radialGradient>
</defs>
</svg>
