<svg width="11" height="11" viewBox="0 0 11 11" fill="none" xmlns="http://www.w3.org/2000/svg">
<g clip-path="url(#clip0_151_3369)">
<path d="M5.5 11C8.53757 11 11 8.53757 11 5.5C11 2.46243 8.53757 0 5.5 0C2.46243 0 0 2.46243 0 5.5C0 8.53757 2.46243 11 5.5 11Z" fill="#FF0420"/>
<path d="M3.89691 6.9618C3.56942 6.9618 3.30111 6.88474 3.09195 6.73063C2.88555 6.57377 2.78235 6.35086 2.78235 6.06189C2.78235 6.00135 2.78923 5.92703 2.80298 5.83897C2.83878 5.64083 2.88969 5.40277 2.95573 5.12482C3.14286 4.36802 3.62585 3.98962 4.40467 3.98962C4.61658 3.98962 4.80646 4.0254 4.97434 4.09694C5.14222 4.16573 5.27431 4.27032 5.37063 4.41068C5.46694 4.54827 5.51512 4.7134 5.51512 4.90603C5.51512 4.96383 5.50824 5.03676 5.49446 5.12482C5.45319 5.36975 5.40365 5.60781 5.34585 5.83897C5.24954 6.216 5.08304 6.49809 4.84637 6.68522C4.60969 6.8696 4.29322 6.9618 3.89691 6.9618ZM3.95471 6.36736C4.10884 6.36736 4.23954 6.32195 4.34688 6.23114C4.45697 6.14032 4.5354 6.00135 4.58217 5.81422C4.64546 5.55552 4.69364 5.32984 4.72666 5.13721C4.73766 5.07942 4.74316 5.02026 4.74316 4.95969C4.74316 4.70927 4.61244 4.58404 4.35101 4.58404C4.19688 4.58404 4.06479 4.62945 3.95471 4.72027C3.84739 4.8111 3.77032 4.95008 3.72355 5.13721C3.67401 5.32159 3.62446 5.54727 3.57494 5.81422C3.56392 5.86924 3.55842 5.92703 3.55842 5.98758C3.55842 6.24077 3.69053 6.36736 3.95471 6.36736Z" fill="white"/>
<path d="M5.70468 6.92052C5.6744 6.92052 5.651 6.91088 5.6345 6.89161C5.62072 6.86959 5.61661 6.84484 5.62211 6.81732L6.19178 4.13409C6.19728 4.10381 6.21241 4.07904 6.23719 4.05977C6.26196 4.04052 6.28809 4.03088 6.31562 4.03088H7.41368C7.71915 4.03088 7.96408 4.09418 8.14846 4.22077C8.33561 4.34738 8.42918 4.53037 8.42918 4.7698C8.42918 4.83859 8.42093 4.91016 8.40441 4.98445C8.33561 5.30094 8.19664 5.53487 7.98748 5.68623C7.78108 5.83759 7.49761 5.91327 7.1371 5.91327H6.57981L6.38993 6.81732C6.38441 6.84759 6.36927 6.87234 6.34452 6.89161C6.31975 6.91088 6.29359 6.92052 6.26609 6.92052H5.70468ZM7.166 5.3436C7.28157 5.3436 7.38202 5.31194 7.46734 5.24865C7.5554 5.18536 7.6132 5.09454 7.64072 4.9762C7.64897 4.92941 7.65311 4.88814 7.65311 4.85236C7.65311 4.77255 7.62972 4.712 7.58293 4.67073C7.53613 4.62669 7.45634 4.60469 7.3435 4.60469H6.84813L6.69127 5.3436H7.166Z" fill="white"/>
</g>
<defs>
<clipPath id="clip0_151_3369">
<rect width="11" height="11" fill="white"/>
</clipPath>
</defs>
</svg>
