<svg width="1000" height="800" viewBox="0 0 1000 800" fill="none" xmlns="http://www.w3.org/2000/svg">
<path fill-rule="evenodd" clip-rule="evenodd" d="M0 800H216L228 770H900V800H1000V36L957 0H0V800ZM949.611 14.625H680.218L709.396 38.375H978.789L949.611 14.625ZM646.154 14.625H668.546L697.725 38.375H675.332L646.154 14.625ZM637.196 14.625H614.804L643.982 38.375H666.375L637.196 14.625ZM583.454 14.625H605.846L635.025 38.375H612.632L583.454 14.625ZM574.496 14.625H552.104L581.282 38.375H603.675L574.496 14.625ZM520.754 14.625H543.146L572.325 38.375H549.932L520.754 14.625ZM511.796 14.625H489.404L518.582 38.375H540.975L511.796 14.625ZM458.054 14.625H480.446L509.625 38.375H487.232L458.054 14.625ZM449.096 14.625H426.704L455.882 38.375H478.275L449.096 14.625ZM395.354 14.625H417.746L446.925 38.375H424.532L395.354 14.625ZM39 58L23 38V372L39 392V58ZM23 400L39 420V534L23 514V400ZM39 562L23 542V596L39 616V562Z" fill="#1D1A43" fill-opacity="0.75"/>
</svg>
