<svg width="32" height="32" viewBox="0 0 32 32" fill="none" xmlns="http://www.w3.org/2000/svg">
<circle cx="15.579" cy="15.579" r="15.579" fill="#151F5C" fill-opacity="0.5"/>
<circle cx="15.579" cy="15.579" r="15.3329" stroke="#D2ECFF" stroke-opacity="0.5" stroke-width="0.492188"/>
<path d="M12.7443 11.404L9.3706 14.7777C8.83234 15.3159 7.91199 14.9347 7.91199 14.1735C7.91199 13.9443 8.00408 13.7247 8.16759 13.564L13.7138 8.11449C14.181 7.65547 14.9702 7.98643 14.9702 8.64137V23.5407C14.9702 24.0393 14.566 24.4435 14.0674 24.4435C13.5688 24.4435 13.1646 24.0393 13.1646 23.5407V11.5781C13.1646 11.3587 12.8994 11.2489 12.7443 11.404Z" fill="#DAF0FF" stroke="#D2ECFF" stroke-opacity="0.5" stroke-width="0.492188"/>
<path d="M19.1653 23.5307L22.5389 20.157C23.0772 19.6188 23.9976 20 23.9976 20.7612C23.9976 20.9904 23.9055 21.21 23.742 21.3707L18.1957 26.8202C17.7285 27.2792 16.9394 26.9483 16.9394 26.2933L16.9394 11.394C16.9394 10.8954 17.3436 10.4912 17.8422 10.4912C18.3408 10.4912 18.7449 10.8954 18.7449 11.394L18.7449 23.3566C18.7449 23.576 19.0102 23.6858 19.1653 23.5307Z" fill="#DAF0FF" stroke="#D2ECFF" stroke-opacity="0.5" stroke-width="0.492188"/>
</svg>
