<svg width="60" height="61" viewBox="0 0 60 61" fill="none" xmlns="http://www.w3.org/2000/svg">
<circle cx="29.7368" cy="30.4243" r="29.6743" fill="#151F5C" fill-opacity="0.5"/>
<circle cx="29.7368" cy="30.4243" r="29.2056" stroke="#D2ECFF" stroke-opacity="0.5" stroke-width="0.9375"/>
<path d="M24.3373 22.472L17.9113 28.898C16.886 29.9233 15.1329 29.1971 15.1329 27.7472C15.1329 27.3106 15.3084 26.8923 15.6198 26.5863L26.1841 16.2063C27.0739 15.3319 28.5771 15.9623 28.5771 17.2098V45.5895C28.5771 46.5392 27.8072 47.3091 26.8575 47.3091C25.9078 47.3091 25.1379 46.5392 25.1379 45.5895V22.8036C25.1379 22.3858 24.6328 22.1765 24.3373 22.472Z" fill="#DAF0FF" stroke="#D2ECFF" stroke-opacity="0.5" stroke-width="0.9375"/>
<path d="M36.5677 45.5705L42.9938 39.1445C44.019 38.1192 45.7721 38.8453 45.7721 40.2953C45.7721 40.7319 45.5967 41.1502 45.2852 41.4562L34.7209 51.8362C33.8311 52.7105 32.3279 52.0801 32.3279 50.8326L32.3279 22.453C32.3279 21.5033 33.0978 20.7334 34.0475 20.7334C34.9972 20.7334 35.7671 21.5033 35.7671 22.453L35.7671 45.2389C35.7671 45.6567 36.2723 45.866 36.5677 45.5705Z" fill="#DAF0FF" stroke="#D2ECFF" stroke-opacity="0.5" stroke-width="0.9375"/>
</svg>
