<svg width="97" height="96" viewBox="0 0 97 96" fill="none" xmlns="http://www.w3.org/2000/svg" xmlns:xlink="http://www.w3.org/1999/xlink">
<g opacity="0.8">
<mask id="mask0_57_1658" style="mask-type:luminance" maskUnits="userSpaceOnUse" x="0" y="0" width="97" height="96">
<path d="M96.225 0.367432H0.775024V95.8174H96.225V0.367432Z" fill="white"/>
</mask>
<g mask="url(#mask0_57_1658)">
<g filter="url(#filter0_f_57_1658)">
<path d="M96.225 0.367371H0.775024V95.8174H96.225V0.367371Z" fill="#00061A"/>
<g filter="url(#filter1_f_57_1658)">
<path d="M-1.42351 18.6979C5.32192 18.6979 10.7902 9.62957 10.7902 -1.55676C10.7902 -12.7431 5.32192 -21.8114 -1.42351 -21.8114C-8.16895 -21.8114 -13.6372 -12.7431 -13.6372 -1.55676C-13.6372 9.62957 -8.16895 18.6979 -1.42351 18.6979Z" fill="#848484" fill-opacity="0.5"/>
</g>
<g filter="url(#filter2_f_57_1658)">
<path d="M20.0879 105.337C4.89713 83.3861 9.66047 25.7616 14.3933 0.417999V-11.431H-3.22498V105.337H20.0879Z" fill="#00061A"/>
</g>
<mask id="mask1_57_1658" style="mask-type:luminance" maskUnits="userSpaceOnUse" x="51" y="-76" width="124" height="208">
<path d="M174.392 47.0694L113.893 -75.8914L51.7365 8.2141L112.235 131.175L174.392 47.0694Z" fill="white"/>
</mask>
<g mask="url(#mask1_57_1658)">
<g opacity="0.6">
<g opacity="0.7">
<path opacity="0.11" d="M83.0783 19.4441C83.1461 19.4802 83.2184 19.4183 83.2404 19.3059C83.2621 19.1934 83.2249 19.073 83.1571 19.0369C83.0893 19.0008 83.0166 19.0627 82.9949 19.1751C82.9729 19.2876 83.0105 19.408 83.0783 19.4441Z" fill="white"/>
<path d="M83.2598 20.7747C83.3105 20.8018 83.3652 20.7555 83.3814 20.6711C83.3978 20.5868 83.3698 20.4966 83.3188 20.4695C83.2681 20.4424 83.2137 20.4888 83.1972 20.5731C83.1811 20.6574 83.2088 20.7477 83.2598 20.7747Z" fill="white"/>
<path d="M85.6987 19.7177C85.7497 19.7448 85.8041 19.6984 85.8206 19.6141C85.8367 19.5298 85.809 19.4395 85.758 19.4124C85.7073 19.3853 85.6526 19.4317 85.6364 19.516C85.6199 19.6003 85.648 19.6906 85.6987 19.7177Z" fill="white"/>
<path d="M80.5225 16.7355C80.5732 16.7626 80.6276 16.7161 80.644 16.6318C80.6602 16.5475 80.6324 16.4572 80.5814 16.4301C80.5308 16.4031 80.4761 16.4495 80.4599 16.5338C80.4434 16.6181 80.4715 16.7084 80.5225 16.7355Z" fill="white"/>
<path opacity="0.11" d="M77.0118 17.5597C77.0796 17.5958 77.1522 17.534 77.1739 17.4216C77.1959 17.3091 77.1583 17.1887 77.0906 17.1526C77.0228 17.1165 76.9501 17.1783 76.9284 17.2908C76.9067 17.4032 76.944 17.5236 77.0118 17.5597Z" fill="white"/>
<path d="M76.2798 14.7002C76.3137 14.7183 76.3498 14.6873 76.3607 14.6312C76.3717 14.575 76.3531 14.5148 76.3192 14.4968C76.2853 14.4787 76.249 14.5097 76.238 14.5658C76.2273 14.622 76.2459 14.6822 76.2798 14.7002Z" fill="white"/>
<path d="M82.1251 23.3139C82.159 23.3319 82.1954 23.301 82.206 23.2448C82.217 23.1887 82.1984 23.1285 82.1645 23.1104C82.1306 23.0924 82.0943 23.1233 82.0836 23.1795C82.0726 23.2356 82.0912 23.2958 82.1251 23.3139Z" fill="white"/>
<path d="M95.5024 30.4395C95.5363 30.4575 95.5723 30.4266 95.5833 30.3705C95.5943 30.3143 95.5756 30.2541 95.5418 30.2361C95.5079 30.2181 95.4715 30.249 95.4605 30.3051C95.4498 30.3613 95.4685 30.4215 95.5024 30.4395Z" fill="white"/>
<path d="M62.1841 9.88639C62.218 9.90442 62.2544 9.87353 62.265 9.81732C62.276 9.76117 62.2574 9.70101 62.2235 9.68293C62.1896 9.66491 62.1533 9.69584 62.1423 9.752C62.1316 9.80816 62.1502 9.86831 62.1841 9.88639Z" fill="white"/>
<path opacity="0.11" d="M62.3283 3.90151C62.3621 3.91955 62.3985 3.88863 62.4095 3.83245C62.4202 3.77628 62.4015 3.71612 62.3676 3.69808C62.3338 3.68004 62.2977 3.71095 62.2867 3.76712C62.2757 3.82329 62.2944 3.88346 62.3283 3.90151Z" fill="white"/>
<path opacity="0.11" d="M59.2366 4.83692C59.2705 4.85496 59.3068 4.82405 59.3175 4.76788C59.3285 4.7117 59.3099 4.65155 59.276 4.6335C59.2421 4.61546 59.2057 4.64637 59.1951 4.70254C59.1841 4.75872 59.2027 4.81888 59.2366 4.83692Z" fill="white"/>
<path opacity="0.11" d="M60.0789 12.021C60.1125 12.039 60.1488 12.0081 60.1598 11.9519C60.1708 11.8958 60.1522 11.8356 60.1183 11.8176C60.0844 11.7995 60.0481 11.8305 60.0371 11.8866C60.0264 11.9428 60.045 12.003 60.0789 12.021Z" fill="white"/>
<path opacity="0.11" d="M75.471 15.7284C75.5049 15.7465 75.5412 15.7156 75.5522 15.6594C75.5629 15.6032 75.5442 15.5431 75.5103 15.525C75.4765 15.5069 75.4401 15.5379 75.4294 15.594C75.4184 15.6502 75.4371 15.7104 75.471 15.7284Z" fill="white"/>
<path opacity="0.11" d="M81.2933 26.913C81.3272 26.931 81.3636 26.9001 81.3743 26.8439C81.3853 26.7878 81.3666 26.7276 81.3327 26.7095C81.2988 26.6915 81.2625 26.7224 81.2518 26.7786C81.2408 26.8348 81.2595 26.8949 81.2933 26.913Z" fill="white"/>
<path opacity="0.11" d="M93.2715 32.1698C93.3054 32.1879 93.3417 32.1569 93.3524 32.1008C93.3634 32.0446 93.3448 31.9844 93.3109 31.9664C93.277 31.9484 93.2407 31.9792 93.23 32.0354C93.219 32.0916 93.2376 32.1518 93.2715 32.1698Z" fill="white"/>
<path opacity="0.3" d="M65.4997 8.84605C65.5336 8.86407 65.5696 8.83318 65.5806 8.77698C65.5916 8.72082 65.573 8.66066 65.5391 8.64259C65.5052 8.62456 65.4688 8.6555 65.4578 8.71166C65.4472 8.76781 65.4658 8.82802 65.4997 8.84605Z" fill="white"/>
<path d="M80.6773 10.8678C80.7111 10.8858 80.7475 10.8549 80.7582 10.7987C80.7692 10.7426 80.7505 10.6824 80.7166 10.6643C80.6828 10.6463 80.6464 10.6772 80.6357 10.7334C80.6247 10.7895 80.6434 10.8497 80.6773 10.8678Z" fill="white"/>
<path d="M90.1662 15.6979C90.2001 15.7159 90.2364 15.685 90.2471 15.6288C90.2581 15.5726 90.2395 15.5125 90.2056 15.4945C90.1717 15.4764 90.1353 15.5073 90.1244 15.5635C90.1137 15.6197 90.1323 15.6798 90.1662 15.6979Z" fill="white"/>
<path d="M74.6912 18.0075C74.7251 18.0256 74.7614 17.9946 74.7724 17.9385C74.7831 17.8823 74.7645 17.8222 74.7306 17.8041C74.6967 17.7861 74.6606 17.817 74.6496 17.8732C74.6386 17.9293 74.6573 17.9895 74.6912 18.0075Z" fill="white"/>
<path opacity="0.3" d="M70.3958 15.7199C70.4294 15.738 70.4657 15.7071 70.4767 15.6509C70.4877 15.5947 70.4691 15.5346 70.4352 15.5165C70.4013 15.4985 70.365 15.5294 70.354 15.5856C70.3433 15.6417 70.3619 15.7019 70.3958 15.7199Z" fill="white"/>
<path opacity="0.11" d="M66.5867 6.73113C66.6206 6.74921 66.6566 6.71827 66.6676 6.66211C66.6786 6.60591 66.66 6.54575 66.6261 6.52772C66.5922 6.5097 66.5559 6.54059 66.5449 6.59679C66.5342 6.65295 66.5528 6.7131 66.5867 6.73113Z" fill="white"/>
<path opacity="0.3" d="M81.3091 13.8992C81.343 13.9172 81.3791 13.8863 81.39 13.8301C81.401 13.774 81.3824 13.7138 81.3485 13.6958C81.3146 13.6777 81.2783 13.7086 81.2673 13.7648C81.2566 13.821 81.2752 13.8812 81.3091 13.8992Z" fill="white"/>
<path opacity="0.3" d="M75.3602 20.4971C75.3941 20.5151 75.4305 20.4842 75.4415 20.428C75.4521 20.3719 75.4335 20.3117 75.3996 20.2937C75.3657 20.2756 75.3297 20.3065 75.3187 20.3627C75.3077 20.4189 75.3263 20.479 75.3602 20.4971Z" fill="white"/>
<path opacity="0.3" d="M67.7382 17.5597C67.7721 17.5777 67.8084 17.5468 67.8194 17.4906C67.8301 17.4345 67.8115 17.3743 67.7776 17.3563C67.7437 17.3382 67.7073 17.3692 67.6966 17.4253C67.6856 17.4815 67.7043 17.5416 67.7382 17.5597Z" fill="white"/>
<path opacity="0.3" d="M67.2792 9.79436C67.3131 9.81244 67.3494 9.7815 67.3601 9.72535C67.3711 9.66919 67.3525 9.60898 67.3186 9.59096C67.2847 9.57293 67.2483 9.60382 67.2377 9.66002C67.2267 9.71618 67.2453 9.77634 67.2792 9.79436Z" fill="white"/>
<path opacity="0.3" d="M87.2988 25.9575C87.3665 25.9936 87.4392 25.9317 87.4609 25.8193C87.4829 25.7068 87.4453 25.5864 87.3775 25.5503C87.3098 25.5141 87.2371 25.5761 87.2154 25.6885C87.1937 25.8009 87.231 25.9214 87.2988 25.9575Z" fill="white"/>
<path opacity="0.11" d="M91.5109 24.8337C91.5787 24.8698 91.6514 24.8079 91.6731 24.6955C91.6947 24.5831 91.6575 24.4626 91.5897 24.4265C91.5219 24.3904 91.4492 24.4523 91.4276 24.5647C91.4059 24.6771 91.4431 24.7976 91.5109 24.8337Z" fill="white"/>
<path d="M92.1702 21.256C92.2209 21.283 92.2756 21.2367 92.2918 21.1523C92.3082 21.068 92.2802 20.9777 92.2292 20.9507C92.1785 20.9236 92.1241 20.97 92.1076 21.0543C92.0914 21.1386 92.1192 21.2289 92.1702 21.256Z" fill="white"/>
<path d="M85.867 29.6858C85.9177 29.7129 85.972 29.6665 85.9885 29.5822C86.0047 29.4979 85.9769 29.4076 85.9259 29.3805C85.8752 29.3535 85.8206 29.3999 85.8044 29.4842C85.7882 29.5685 85.816 29.6588 85.867 29.6858Z" fill="white"/>
<path d="M66.3557 19.6298C66.4063 19.6569 66.461 19.6104 66.4772 19.5261C66.4937 19.4418 66.4656 19.3515 66.4149 19.3245C66.3639 19.2974 66.3095 19.3438 66.2931 19.4281C66.2769 19.5124 66.3047 19.6027 66.3557 19.6298Z" fill="white"/>
<path d="M58.6483 12.943C58.6989 12.9701 58.7536 12.9237 58.7698 12.8394C58.7863 12.7551 58.7582 12.6648 58.7075 12.6377C58.6565 12.6106 58.6021 12.657 58.5857 12.7413C58.5695 12.8256 58.5973 12.916 58.6483 12.943Z" fill="white"/>
<path d="M58.3933 8.31695C58.4439 8.34404 58.4986 8.29766 58.5148 8.21335C58.5313 8.12904 58.5032 8.0387 58.4525 8.01161C58.4015 7.98457 58.3471 8.03096 58.3307 8.11527C58.3145 8.19958 58.3423 8.28986 58.3933 8.31695Z" fill="white"/>
<path d="M88.8306 21.7227C88.8816 21.7498 88.9359 21.7035 88.9524 21.6191C88.9686 21.5348 88.9405 21.4445 88.8898 21.4175C88.8388 21.3904 88.7845 21.4368 88.7683 21.5211C88.7518 21.6054 88.7799 21.6957 88.8306 21.7227Z" fill="white"/>
<path d="M76.6952 23.5658C76.7462 23.5929 76.8005 23.5465 76.817 23.4622C76.8332 23.3778 76.8051 23.2876 76.7544 23.2605C76.7034 23.2334 76.6491 23.2798 76.6329 23.3641C76.6164 23.4484 76.6445 23.5387 76.6952 23.5658Z" fill="white"/>
<path d="M91.3109 36.1779C91.3619 36.2049 91.4163 36.1585 91.4325 36.0742C91.449 35.9899 91.4209 35.8996 91.3702 35.8725C91.3192 35.8455 91.2648 35.8919 91.2484 35.9762C91.2322 36.0605 91.2603 36.1508 91.3109 36.1779Z" fill="white"/>
<path opacity="0.3" d="M65.584 15.4017C65.6518 15.4378 65.7245 15.376 65.7462 15.2636C65.7678 15.1511 65.7306 15.0307 65.6628 14.9946C65.595 14.9584 65.5224 15.0203 65.5007 15.1328C65.4787 15.2452 65.5162 15.3656 65.584 15.4017Z" fill="white"/>
<path opacity="0.3" d="M61.6974 7.15751C61.7652 7.19361 61.8379 7.13173 61.8596 7.01927C61.8813 6.90685 61.844 6.78639 61.7762 6.75029C61.7084 6.71418 61.6358 6.77606 61.6141 6.88847C61.5924 7.00094 61.6297 7.12135 61.6974 7.15751Z" fill="white"/>
<path opacity="0.3" d="M71.1423 8.37165C71.21 8.40781 71.2827 8.34588 71.3044 8.23346C71.3264 8.121 71.2888 8.00059 71.221 7.96448C71.1533 7.92833 71.0806 7.99021 71.0589 8.10267C71.0372 8.21513 71.0745 8.33555 71.1423 8.37165Z" fill="white"/>
<path opacity="0.11" d="M69.8796 5.45393C69.9474 5.49004 70.02 5.42817 70.0417 5.31573C70.0634 5.20328 70.0261 5.08285 69.9583 5.04674C69.8906 5.01062 69.8179 5.0725 69.7962 5.18495C69.7745 5.29739 69.8118 5.41783 69.8796 5.45393Z" fill="white"/>
<path opacity="0.3" d="M68.1274 11.7051C68.1952 11.7413 68.2675 11.6794 68.2895 11.567C68.3112 11.4545 68.274 11.3341 68.2062 11.298C68.1384 11.2618 68.0657 11.3237 68.044 11.4362C68.022 11.5486 68.0593 11.669 68.1274 11.7051Z" fill="white"/>
<path d="M71.9821 13.646C72.0328 13.6731 72.0871 13.6267 72.1036 13.5424C72.1198 13.4581 72.092 13.3678 72.041 13.3407C71.9904 13.3136 71.9357 13.36 71.9195 13.4443C71.903 13.5287 71.9311 13.6189 71.9821 13.646Z" fill="white"/>
</g>
</g>
</g>
<mask id="mask2_57_1658" style="mask-type:luminance" maskUnits="userSpaceOnUse" x="-39" y="-84" width="111" height="162">
<path d="M-38.2478 46.9434L55.6453 77.605L71.1448 -52.9254L-22.7482 -83.587L-38.2478 46.9434Z" fill="white"/>
</mask>
<g mask="url(#mask2_57_1658)">
<g opacity="0.6">
<g opacity="0.7">
<path opacity="0.11" d="M29.3261 15.6388C29.26 15.6827 29.2279 15.8072 29.2544 15.9168C29.2809 16.0264 29.356 16.0797 29.4221 16.0358C29.4882 15.9918 29.5203 15.8673 29.4938 15.7577C29.4673 15.6481 29.3922 15.5948 29.3261 15.6388Z" fill="white"/>
<path d="M28.6737 14.8057C28.6241 14.8387 28.6 14.932 28.6199 15.0142C28.6398 15.0964 28.696 15.1364 28.7456 15.1034C28.7952 15.0704 28.8192 14.9771 28.7994 14.8949C28.7795 14.8127 28.7232 14.7728 28.6737 14.8057Z" fill="white"/>
<path d="M27.2026 18.201C27.153 18.234 27.129 18.3273 27.1488 18.4095C27.1687 18.4917 27.225 18.5316 27.2745 18.4987C27.3241 18.4657 27.3482 18.3724 27.3283 18.2902C27.3084 18.208 27.2522 18.1681 27.2026 18.201Z" fill="white"/>
<path d="M32.336 15.02C32.2862 15.0529 32.2624 15.1463 32.2823 15.2285C32.3021 15.3107 32.3583 15.3506 32.4078 15.3176C32.4575 15.2847 32.4813 15.1913 32.4615 15.1092C32.4416 15.027 32.3855 14.987 32.336 15.02Z" fill="white"/>
<path opacity="0.11" d="M34.7218 10.6705C34.6556 10.7145 34.6235 10.839 34.6501 10.9486C34.6766 11.0582 34.7518 11.1115 34.8177 11.0675C34.884 11.0236 34.916 10.8991 34.8895 10.7895C34.8629 10.6799 34.7878 10.6266 34.7218 10.6705Z" fill="white"/>
<path d="M36.3857 12.0977C36.3527 12.1196 36.3368 12.1818 36.3499 12.2366C36.3631 12.2913 36.4006 12.3179 36.4336 12.296C36.4666 12.274 36.4828 12.2118 36.4696 12.1571C36.4562 12.1023 36.4186 12.0757 36.3857 12.0977Z" fill="white"/>
<path d="M28.5708 11.6503C28.5377 11.6722 28.5217 11.7344 28.5349 11.7892C28.5482 11.8439 28.5857 11.8706 28.6187 11.8486C28.6517 11.8267 28.6678 11.7644 28.6545 11.7097C28.6413 11.6549 28.6038 11.6283 28.5708 11.6503Z" fill="white"/>
<path d="M15.5287 20.3183C15.4957 20.3403 15.4797 20.4025 15.4929 20.4572C15.5062 20.512 15.5437 20.5386 15.5767 20.5166C15.6097 20.4947 15.6257 20.4325 15.6125 20.3777C15.5993 20.323 15.5618 20.2964 15.5287 20.3183Z" fill="white"/>
<path d="M10.3031 30.0102C10.2701 30.0322 10.2541 30.0943 10.2673 30.1491C10.2806 30.2039 10.3181 30.2305 10.3511 30.2085C10.3841 30.1866 10.4002 30.1244 10.3869 30.0696C10.3737 30.0148 10.3362 29.9883 10.3031 30.0102Z" fill="white"/>
<path d="M6.21942 24.3185C6.18638 24.3405 6.17035 24.4026 6.18361 24.4574C6.19683 24.5122 6.23432 24.5387 6.26736 24.5168C6.30037 24.4948 6.31643 24.4327 6.30318 24.3779C6.28996 24.3231 6.25243 24.2966 6.21942 24.3185Z" fill="white"/>
<path d="M49.0914 0.889229C49.0581 0.91118 49.0423 0.973372 49.0554 1.02814C49.0688 1.0829 49.1061 1.1095 49.1394 1.08755C49.1723 1.0656 49.1882 1.00341 49.1751 0.948646C49.1619 0.893877 49.1244 0.867276 49.0914 0.889229Z" fill="white"/>
<path opacity="0.11" d="M51.283 5.64996C51.25 5.67193 51.2339 5.73412 51.2473 5.78891C51.2604 5.84364 51.298 5.87023 51.3309 5.8483C51.3639 5.82633 51.3801 5.76414 51.3667 5.70941C51.3535 5.65462 51.316 5.62803 51.283 5.64996Z" fill="white"/>
<path opacity="0.11" d="M53.3038 1.65845C53.2708 1.68041 53.2546 1.74259 53.2677 1.79736C53.2812 1.85212 53.3187 1.87872 53.3517 1.85677C53.3847 1.83482 53.4009 1.77263 53.3874 1.71787C53.3743 1.6631 53.3368 1.6365 53.3038 1.65845Z" fill="white"/>
<path opacity="0.11" d="M36.6128 10.4505C36.5799 10.4725 36.5637 10.5347 36.5771 10.5894C36.5903 10.6442 36.6278 10.6708 36.6608 10.6488C36.6938 10.6269 36.7099 10.5647 36.6965 10.5099C36.6834 10.4552 36.6458 10.4286 36.6128 10.4505Z" fill="white"/>
<path opacity="0.11" d="M27.8265 7.99902C27.7934 8.021 27.7774 8.08318 27.7907 8.13792C27.8039 8.1927 27.8414 8.21929 27.8744 8.19736C27.9074 8.17539 27.9235 8.1132 27.9102 8.05842C27.897 8.00368 27.8595 7.97709 27.8265 7.99902Z" fill="white"/>
<path opacity="0.11" d="M16.5807 16.6259C16.5477 16.6479 16.5317 16.7101 16.5449 16.7648C16.5582 16.8196 16.5956 16.8462 16.6287 16.8243C16.6617 16.8023 16.6778 16.7401 16.6645 16.6854C16.6513 16.6306 16.6138 16.604 16.5807 16.6259Z" fill="white"/>
<path opacity="0.3" d="M46.9385 5.19868C46.9056 5.22063 46.8894 5.28282 46.9028 5.33758C46.9159 5.39235 46.9535 5.41895 46.9865 5.397C47.0194 5.37505 47.0356 5.31286 47.0222 5.25809C47.0091 5.20333 46.9715 5.17672 46.9385 5.19868Z" fill="white"/>
<path d="M34.4744 19.7016C34.4415 19.7236 34.4253 19.7858 34.4384 19.8405C34.4518 19.8953 34.4894 19.9219 34.5224 19.8999C34.5553 19.878 34.5712 19.8158 34.5581 19.761C34.545 19.7063 34.5074 19.6797 34.4744 19.7016Z" fill="white"/>
<path d="M25.3094 26.0233C25.2764 26.0453 25.2603 26.1075 25.2736 26.1622C25.2868 26.217 25.3243 26.2436 25.3573 26.2217C25.3904 26.1997 25.4064 26.1375 25.3932 26.0827C25.3799 26.028 25.3424 26.0014 25.3094 26.0233Z" fill="white"/>
<path d="M36.3361 7.87023C36.3031 7.89221 36.2873 7.95439 36.3004 8.00913C36.3135 8.06392 36.3511 8.0905 36.384 8.06858C36.4173 8.0466 36.4332 7.98442 36.4201 7.92968C36.4066 7.87489 36.3694 7.84831 36.3361 7.87023Z" fill="white"/>
<path opacity="0.3" d="M40.524 5.0868C40.491 5.10874 40.4748 5.17094 40.4883 5.22571C40.5014 5.28047 40.5389 5.30707 40.5719 5.28512C40.6049 5.26317 40.6211 5.20098 40.6076 5.14622C40.5945 5.09145 40.557 5.06485 40.524 5.0868Z" fill="white"/>
<path opacity="0.11" d="M46.9152 7.97723C46.8822 7.99921 46.8661 8.06139 46.8795 8.11618C46.8926 8.17091 46.9302 8.1975 46.9632 8.17557C46.9961 8.1536 47.0123 8.09141 46.9989 8.03668C46.9857 7.98189 46.9482 7.9553 46.9152 7.97723Z" fill="white"/>
<path opacity="0.3" d="M32.8215 18.0363C32.7885 18.0583 32.7723 18.1204 32.7857 18.1752C32.7989 18.23 32.8364 18.2566 32.8694 18.2346C32.9024 18.2127 32.9186 18.1505 32.9051 18.0957C32.892 18.041 32.8544 18.0144 32.8215 18.0363Z" fill="white"/>
<path opacity="0.3" d="M34.8631 6.66119C34.8301 6.68317 34.8142 6.74535 34.8274 6.80009C34.8405 6.85487 34.878 6.88146 34.911 6.85953C34.944 6.83756 34.9602 6.77538 34.9471 6.72059C34.9336 6.66585 34.8961 6.63926 34.8631 6.66119Z" fill="white"/>
<path opacity="0.3" d="M41.8624 0.857917C41.8294 0.879866 41.8135 0.942058 41.8266 0.996827C41.8398 1.05159 41.8773 1.07819 41.9103 1.05624C41.9436 1.03429 41.9595 0.972101 41.9463 0.917332C41.9329 0.862569 41.8956 0.835966 41.8624 0.857917Z" fill="white"/>
<path opacity="0.3" d="M45.2036 6.35127C45.1703 6.3732 45.1544 6.43543 45.1676 6.49017C45.181 6.54496 45.2183 6.57154 45.2515 6.54962C45.2845 6.52764 45.3004 6.46546 45.2873 6.41067C45.2741 6.35593 45.2366 6.3293 45.2036 6.35127Z" fill="white"/>
<path opacity="0.3" d="M8.06587 31.382C8.03283 31.4039 8.0168 31.4661 8.03002 31.5209C8.04328 31.5756 8.08077 31.6022 8.11381 31.5803C8.14682 31.5583 8.16288 31.4961 8.14963 31.4414C8.13641 31.3866 8.09888 31.36 8.06587 31.382Z" fill="white"/>
<path opacity="0.11" d="M18.6805 29.0477C18.6475 29.0697 18.6314 29.1319 18.6446 29.1866C18.6579 29.2414 18.6954 29.268 18.7284 29.246C18.7614 29.2241 18.7775 29.1619 18.7643 29.1071C18.751 29.0524 18.7135 29.0258 18.6805 29.0477Z" fill="white"/>
<path opacity="0.11" d="M8.6501 26.0427C8.61706 26.0647 8.60103 26.1269 8.61425 26.1816C8.62751 26.2364 8.665 26.263 8.69804 26.2411C8.73105 26.2191 8.74711 26.1569 8.73386 26.1021C8.72063 26.0474 8.68311 26.0208 8.6501 26.0427Z" fill="white"/>
<path opacity="0.3" d="M23.5695 15.0892C23.5034 15.1332 23.4713 15.2576 23.4978 15.3673C23.5243 15.4769 23.5994 15.5301 23.6655 15.4862C23.7316 15.4422 23.7637 15.3178 23.7372 15.2082C23.7107 15.0985 23.6356 15.0453 23.5695 15.0892Z" fill="white"/>
<path opacity="0.11" d="M20.7595 20.4117C20.6934 20.4556 20.6613 20.5801 20.6878 20.6897C20.7143 20.7993 20.7893 20.8526 20.8554 20.8086C20.9215 20.7647 20.9537 20.6402 20.9271 20.5306C20.9006 20.4209 20.8256 20.3677 20.7595 20.4117Z" fill="white"/>
<path d="M21.628 23.8641C21.5784 23.897 21.5544 23.9904 21.5742 24.0726C21.5941 24.1548 21.6504 24.1947 21.7 24.1618C21.7495 24.1288 21.7736 24.0355 21.7537 23.9533C21.7339 23.8711 21.6776 23.8312 21.628 23.8641Z" fill="white"/>
<path d="M23.2379 10.7036C23.1883 10.7365 23.1642 10.8299 23.1841 10.912C23.2039 10.9942 23.2602 11.0342 23.3098 11.0012C23.3594 10.9683 23.3834 10.8749 23.3636 10.7927C23.3437 10.7106 23.2874 10.6706 23.2379 10.7036Z" fill="white"/>
<path d="M2.89728 21.9207C2.84772 21.9536 2.82365 22.0469 2.84352 22.1292C2.86338 22.2114 2.91966 22.2513 2.96923 22.2183C3.01879 22.1854 3.04287 22.0921 3.02301 22.0099C3.00314 21.9276 2.94685 21.8877 2.89728 21.9207Z" fill="white"/>
<path d="M24.0197 19.9711C23.9701 20.004 23.9461 20.0973 23.966 20.1796C23.9858 20.2618 24.0421 20.3017 24.0917 20.2687C24.1412 20.2358 24.1653 20.1425 24.1454 20.0603C24.1256 19.978 24.0693 19.9381 24.0197 19.9711Z" fill="white"/>
<path d="M32.6548 5.71106C32.6053 5.74403 32.5812 5.83735 32.6011 5.91953C32.6209 6.00177 32.6774 6.04167 32.7269 6.00875C32.7763 5.97579 32.8005 5.88247 32.7806 5.80023C32.7608 5.71805 32.7046 5.67815 32.6548 5.71106Z" fill="white"/>
<path d="M16.5482 11.4654C16.4986 11.4983 16.4745 11.5916 16.4944 11.6738C16.5142 11.756 16.5705 11.796 16.6201 11.763C16.6697 11.7301 16.6938 11.6367 16.6739 11.5545C16.654 11.4723 16.5977 11.4324 16.5482 11.4654Z" fill="white"/>
<path d="M2.32587 28.749C2.27631 28.782 2.25224 28.8753 2.2721 28.9575C2.29197 29.0397 2.34825 29.0797 2.39782 29.0467C2.44738 29.0138 2.47145 28.9204 2.45159 28.8382C2.43172 28.756 2.37544 28.7161 2.32587 28.749Z" fill="white"/>
<path d="M2.20881 35.1594C2.15924 35.1924 2.13517 35.2857 2.15504 35.3679C2.1749 35.4501 2.23119 35.4901 2.28075 35.4571C2.33031 35.4241 2.35439 35.3308 2.33452 35.2486C2.31465 35.1664 2.25837 35.1265 2.20881 35.1594Z" fill="white"/>
<path opacity="0.3" d="M16.6685 27.0455C16.6024 27.0895 16.5703 27.214 16.5968 27.3236C16.6233 27.4332 16.6984 27.4865 16.7645 27.4425C16.8306 27.3986 16.8627 27.2741 16.8362 27.1645C16.8097 27.0549 16.7346 27.0016 16.6685 27.0455Z" fill="white"/>
<path d="M18.3715 34.0891C18.3054 34.1331 18.2733 34.2576 18.2998 34.3672C18.3263 34.4768 18.4014 34.53 18.4675 34.4861C18.5336 34.4422 18.5657 34.3177 18.5392 34.2081C18.5127 34.0985 18.4376 34.0452 18.3715 34.0891Z" fill="white"/>
<path d="M13.06 26.9105C13.0104 26.9434 12.9864 27.0367 13.0062 27.119C13.0261 27.2011 13.0824 27.241 13.132 27.2081C13.1815 27.1752 13.2056 27.0818 13.1857 26.9997C13.1659 26.9174 13.1096 26.8775 13.06 26.9105Z" fill="white"/>
<path opacity="0.3" d="M11.0936 32.7083C11.0275 32.7523 10.9954 32.8768 11.0219 32.9864C11.0484 33.096 11.1234 33.1493 11.1895 33.1053C11.2556 33.0614 11.2877 32.9369 11.2612 32.8273C11.2347 32.7176 11.1597 32.6644 11.0936 32.7083Z" fill="white"/>
<path opacity="0.3" d="M3.46895 29.601C3.40284 29.645 3.37073 29.7695 3.39723 29.8791C3.42373 29.9887 3.49879 30.042 3.56489 29.998C3.631 29.9541 3.66311 29.8296 3.63661 29.72C3.61012 29.6104 3.53505 29.5571 3.46895 29.601Z" fill="white"/>
<path opacity="0.3" d="M10.4206 24.7505C10.3545 24.7945 10.3224 24.9189 10.3489 25.0286C10.3754 25.1382 10.4504 25.1915 10.5166 25.1475C10.5827 25.1036 10.6148 24.9791 10.5883 24.8695C10.5618 24.7598 10.4867 24.7066 10.4206 24.7505Z" fill="white"/>
<path opacity="0.3" d="M44.3513 0.240016C44.2854 0.283955 44.253 0.408446 44.2796 0.51807C44.3061 0.627694 44.3812 0.68094 44.4472 0.637001C44.5135 0.593062 44.5455 0.468577 44.5189 0.358953C44.4924 0.249329 44.4176 0.196077 44.3513 0.240016Z" fill="white"/>
<path opacity="0.3" d="M50.5165 2.47537C50.4503 2.5193 50.4182 2.6438 50.4448 2.75342C50.4713 2.86305 50.5464 2.91629 50.6124 2.87235C50.6787 2.82842 50.7107 2.70393 50.6841 2.5943C50.6576 2.48468 50.5825 2.43143 50.5165 2.47537Z" fill="white"/>
<path opacity="0.11" d="M6.6412 30.947C6.57509 30.991 6.54297 31.1154 6.56947 31.2251C6.59598 31.3347 6.67103 31.388 6.73714 31.344C6.80324 31.3001 6.83537 31.1756 6.80886 31.066C6.78236 30.9563 6.70731 30.9031 6.6412 30.947Z" fill="white"/>
<path opacity="0.3" d="M42.777 11.5344C42.7108 11.5783 42.6787 11.7028 42.7053 11.8124C42.7315 11.9221 42.8066 11.9753 42.8729 11.9314C42.9388 11.8874 42.9709 11.763 42.9446 11.6533C42.9181 11.5437 42.843 11.4904 42.777 11.5344Z" fill="white"/>
<path opacity="0.11" d="M44.8719 12.4451C44.8056 12.4891 44.7735 12.6136 44.8001 12.7232C44.8267 12.8328 44.9018 12.8861 44.9677 12.8421C45.034 12.7982 45.0661 12.6737 45.0395 12.5641C45.0129 12.4545 44.9378 12.4012 44.8719 12.4451Z" fill="white"/>
<path opacity="0.3" d="M43.815 5.7775C43.7487 5.82141 43.7167 5.94592 43.7432 6.05555C43.7698 6.16518 43.8449 6.2184 43.9109 6.17444C43.9771 6.13054 44.0092 6.00603 43.9826 5.8964C43.956 5.78677 43.8809 5.73355 43.815 5.7775Z" fill="white"/>
<path d="M40.1005 8.36196C40.051 8.39488 40.0269 8.48825 40.0467 8.57043C40.0666 8.65262 40.1228 8.69257 40.1725 8.6596C40.222 8.62664 40.2461 8.53332 40.2263 8.45113C40.2064 8.36895 40.1503 8.329 40.1005 8.36196Z" fill="white"/>
<path d="M1.17169 17.4624C1.13867 17.4843 1.12263 17.5465 1.13587 17.6013C1.1491 17.6561 1.1866 17.6827 1.21963 17.6607C1.25265 17.6388 1.26869 17.5766 1.25545 17.5218C1.24222 17.4671 1.20472 17.4404 1.17169 17.4624Z" fill="white"/>
<path d="M13.8775 6.25396C13.8445 6.27594 13.8284 6.33812 13.8417 6.39286C13.8549 6.44765 13.8924 6.47423 13.9254 6.45231C13.9585 6.43033 13.9745 6.36815 13.9613 6.31336C13.948 6.25862 13.9105 6.23204 13.8775 6.25396Z" fill="white"/>
<path opacity="0.11" d="M16.0692 11.0148C16.0361 11.0367 16.0201 11.0989 16.0333 11.1537C16.0466 11.2084 16.0841 11.2351 16.1171 11.2131C16.1501 11.1912 16.1662 11.129 16.1529 11.0742C16.1397 11.0194 16.1022 10.9928 16.0692 11.0148Z" fill="white"/>
<path opacity="0.11" d="M18.0898 7.02322C18.0567 7.04514 18.0407 7.10732 18.054 7.16211C18.0672 7.21685 18.1047 7.24349 18.1377 7.22151C18.1707 7.19958 18.1868 7.13735 18.1735 7.08261C18.1603 7.02782 18.1228 7.00124 18.0898 7.02322Z" fill="white"/>
<path opacity="0.11" d="M14.6769 2.3827C14.6439 2.40465 14.6279 2.46684 14.6411 2.5216C14.6543 2.57637 14.6918 2.60298 14.7249 2.58103C14.7579 2.55907 14.7739 2.49688 14.7607 2.44211C14.7475 2.38735 14.7099 2.36075 14.6769 2.3827Z" fill="white"/>
<path opacity="0.11" d="M1.39899 15.8151C1.36596 15.8371 1.34993 15.8993 1.36316 15.954C1.3764 16.0088 1.4139 16.0354 1.44692 16.0134C1.47994 15.9915 1.49599 15.9293 1.48275 15.8745C1.46952 15.8198 1.43201 15.7932 1.39899 15.8151Z" fill="white"/>
<path opacity="0.3" d="M11.7247 10.5633C11.6917 10.5852 11.6756 10.6474 11.6889 10.7022C11.7021 10.757 11.7396 10.7836 11.7726 10.7616C11.8056 10.7397 11.8217 10.6775 11.8084 10.6227C11.7952 10.5679 11.7577 10.5413 11.7247 10.5633Z" fill="white"/>
<path d="M1.12238 13.2349C1.08935 13.2569 1.07331 13.3191 1.08655 13.3739C1.09979 13.4286 1.13729 13.4552 1.17031 13.4333C1.20333 13.4113 1.21938 13.3491 1.20614 13.2944C1.19291 13.2396 1.1554 13.213 1.12238 13.2349Z" fill="white"/>
<path opacity="0.3" d="M5.31012 10.4515C5.27711 10.4734 5.26105 10.5356 5.2743 10.5904C5.28752 10.6451 5.32502 10.6718 5.35806 10.6498C5.39106 10.6279 5.40712 10.5657 5.39387 10.5109C5.38065 10.4561 5.34316 10.4295 5.31012 10.4515Z" fill="white"/>
<path opacity="0.11" d="M11.7015 13.342C11.6685 13.3639 11.6524 13.4261 11.6656 13.4809C11.6789 13.5356 11.7164 13.5623 11.7494 13.5403C11.7824 13.5184 11.7985 13.4562 11.7852 13.4014C11.772 13.3467 11.7345 13.32 11.7015 13.342Z" fill="white"/>
<path opacity="0.3" d="M6.6485 6.22267C6.61546 6.2446 6.59943 6.30683 6.61268 6.36157C6.6259 6.41636 6.6634 6.44294 6.69644 6.42102C6.72945 6.39904 6.74551 6.33686 6.73226 6.28207C6.71903 6.22733 6.68151 6.2007 6.6485 6.22267Z" fill="white"/>
<path opacity="0.3" d="M9.9897 11.7161C9.95666 11.7381 9.94063 11.8003 9.95385 11.855C9.9671 11.9098 10.0046 11.9364 10.0376 11.9145C10.0706 11.8925 10.0867 11.8303 10.0735 11.7756C10.0602 11.7208 10.0227 11.6942 9.9897 11.7161Z" fill="white"/>
<path d="M6.91669 3.16573C6.86713 3.19867 6.84307 3.29201 6.86291 3.37421C6.88279 3.4564 6.93907 3.49632 6.98862 3.46338C7.03821 3.43043 7.06227 3.3371 7.0424 3.2549C7.02255 3.17271 6.96624 3.13278 6.91669 3.16573Z" fill="white"/>
<path d="M15.424 0.158952C15.3745 0.191897 15.3504 0.285239 15.3703 0.367434C15.3901 0.449628 15.4464 0.489549 15.496 0.456604C15.5455 0.42366 15.5696 0.330323 15.5497 0.248128C15.5299 0.165933 15.4736 0.126007 15.424 0.158952Z" fill="white"/>
<path d="M17.4002 3.45119C17.3507 3.48413 17.3266 3.57748 17.3464 3.65967C17.3663 3.74186 17.4226 3.78178 17.4722 3.74884C17.5217 3.7159 17.5458 3.62256 17.5259 3.54036C17.5061 3.45817 17.4498 3.41824 17.4002 3.45119Z" fill="white"/>
<path opacity="0.3" d="M9.13751 5.60465C9.0714 5.64855 9.03931 5.77307 9.06582 5.8827C9.09229 5.99233 9.16737 6.04555 9.23348 6.00159C9.29959 5.95769 9.33168 5.83318 9.30517 5.72355C9.2787 5.61392 9.20362 5.5607 9.13751 5.60465Z" fill="white"/>
<path opacity="0.3" d="M15.3023 7.83981C15.2362 7.88377 15.2041 8.00823 15.2306 8.11786C15.2571 8.22749 15.3322 8.28076 15.3983 8.2368C15.4644 8.19285 15.4965 8.06839 15.47 7.95876C15.4435 7.84913 15.3684 7.79586 15.3023 7.83981Z" fill="white"/>
<path opacity="0.3" d="M7.56307 16.8991C7.49697 16.9431 7.46485 17.0676 7.49135 17.1772C7.51785 17.2868 7.59291 17.3401 7.65901 17.2961C7.72512 17.2522 7.75724 17.1277 7.73074 17.0181C7.70423 16.9084 7.62918 16.8552 7.56307 16.8991Z" fill="white"/>
<path opacity="0.11" d="M9.65731 17.8096C9.59121 17.8536 9.55908 17.978 9.58559 18.0876C9.61209 18.1973 9.68714 18.2505 9.75325 18.2066C9.81936 18.1626 9.85148 18.0382 9.82498 17.9285C9.79847 17.8189 9.72342 17.7656 9.65731 17.8096Z" fill="white"/>
<path opacity="0.3" d="M8.6014 11.1424C8.5353 11.1864 8.50318 11.3108 8.52968 11.4205C8.55618 11.5301 8.63124 11.5833 8.69734 11.5394C8.76345 11.4955 8.79557 11.371 8.76907 11.2614C8.74256 11.1517 8.66751 11.0985 8.6014 11.1424Z" fill="white"/>
<path d="M4.88667 13.7267C4.83711 13.7597 4.81302 13.853 4.8329 13.9352C4.85278 14.0174 4.90905 14.0573 4.95861 14.0243C5.00816 13.9914 5.03226 13.898 5.01238 13.8159C4.99253 13.7337 4.93623 13.6938 4.88667 13.7267Z" fill="white"/>
</g>
</g>
</g>
<g filter="url(#filter3_f_57_1658)">
<path d="M36.6246 181.224C53.5694 192.099 72.622 178.135 79.1797 150.035C85.7374 121.934 77.317 90.3382 60.3721 79.4632C43.4273 68.5882 24.3747 82.5522 17.817 110.653C11.2593 138.753 19.6797 170.349 36.6246 181.224Z" fill="url(#paint0_radial_57_1658)"/>
</g>
<path d="M96.225 0.367371H0.775024V95.8174H96.225V0.367371Z" fill="url(#pattern0)" fill-opacity="0.1"/>
<path d="M96.225 -13.1526H0.775024V124.782H96.225V-13.1526Z" fill="url(#pattern1)" fill-opacity="0.08"/>
</g>
</g>
</g>
<defs>
<filter id="filter0_f_57_1658" x="-14.4672" y="-22.6414" width="111.522" height="208.388" filterUnits="userSpaceOnUse" color-interpolation-filters="sRGB">
<feFlood flood-opacity="0" result="BackgroundImageFix"/>
<feBlend mode="normal" in="SourceGraphic" in2="BackgroundImageFix" result="shape"/>
<feGaussianBlur stdDeviation="0.415" result="effect1_foregroundBlur_57_1658"/>
</filter>
<filter id="filter1_f_57_1658" x="-28.9043" y="-37.0785" width="54.9616" height="71.0435" filterUnits="userSpaceOnUse" color-interpolation-filters="sRGB">
<feFlood flood-opacity="0" result="BackgroundImageFix"/>
<feBlend mode="normal" in="SourceGraphic" in2="BackgroundImageFix" result="shape"/>
<feGaussianBlur stdDeviation="7.63356" result="effect1_foregroundBlur_57_1658"/>
</filter>
<filter id="filter2_f_57_1658" x="-15.4387" y="-23.6447" width="47.7403" height="141.195" filterUnits="userSpaceOnUse" color-interpolation-filters="sRGB">
<feFlood flood-opacity="0" result="BackgroundImageFix"/>
<feBlend mode="normal" in="SourceGraphic" in2="BackgroundImageFix" result="shape"/>
<feGaussianBlur stdDeviation="6.10685" result="effect1_foregroundBlur_57_1658"/>
</filter>
<filter id="filter3_f_57_1658" x="-17.997" y="42.1835" width="132.991" height="176.321" filterUnits="userSpaceOnUse" color-interpolation-filters="sRGB">
<feFlood flood-opacity="0" result="BackgroundImageFix"/>
<feBlend mode="normal" in="SourceGraphic" in2="BackgroundImageFix" result="shape"/>
<feGaussianBlur stdDeviation="16.7938" result="effect1_foregroundBlur_57_1658"/>
</filter>
<pattern id="pattern0" patternContentUnits="objectBoundingBox" width="1" height="1">
<use xlink:href="#image0_57_1658" transform="matrix(0.0015625 0 0 0.00259118 0 -0.329178)"/>
</pattern>
<pattern id="pattern1" patternContentUnits="objectBoundingBox" width="1" height="1">
<use xlink:href="#image1_57_1658" transform="scale(0.000488281)"/>
</pattern>
<radialGradient id="paint0_radial_57_1658" cx="0" cy="0" r="1" gradientUnits="userSpaceOnUse" gradientTransform="translate(49.8155 141.693) rotate(108.453) scale(41.6742 29.5363)">
<stop offset="1" stop-color="#CAE9FF" stop-opacity="0.5"/>
</radialGradient>
</defs>
</svg>
