<svg width="28" height="28" viewBox="0 0 28 28" fill="none" xmlns="http://www.w3.org/2000/svg">
<g clip-path="url(#clip0_57_176)">
<path d="M13.8292 27.7292C16.4921 27.7292 19.0953 26.9396 21.3094 25.4601C23.5236 23.9807 25.2493 21.8779 26.2683 19.4177C27.2874 16.9574 27.554 14.2503 27.0345 11.6385C26.515 9.02676 25.2327 6.6277 23.3497 4.74473C21.4667 2.86175 19.0677 1.57943 16.4559 1.05992C13.8441 0.54041 11.137 0.807042 8.67676 1.8261C6.21654 2.84516 4.11375 4.57087 2.63431 6.78502C1.15486 8.99916 0.365214 11.6023 0.365214 14.2652C0.360855 16.0346 0.706136 17.7873 1.38122 19.4228C2.05631 21.0583 3.04789 22.5443 4.29901 23.7954C5.55012 25.0465 7.03612 26.0381 8.67161 26.7132C10.3071 27.3883 12.0599 27.7336 13.8292 27.7292Z" fill="#2775CA"/>
<path d="M17.5318 16.3975C17.5318 14.4391 16.3543 13.7598 13.9981 13.4795C12.3139 13.2555 11.9785 12.8063 11.9785 12.0217C11.9785 11.2371 12.5391 10.7304 13.6603 10.7304C14.6713 10.7304 15.2319 11.067 15.5122 11.9091C15.5423 11.9902 15.5966 12.0601 15.6678 12.1094C15.7389 12.1587 15.8235 12.1849 15.91 12.1845H16.8072C16.8592 12.1858 16.9109 12.1766 16.9592 12.1573C17.0074 12.138 17.0513 12.1092 17.088 12.0724C17.1248 12.0356 17.1537 11.9918 17.173 11.9435C17.1922 11.8952 17.2015 11.8435 17.2001 11.7916V11.7365C17.0917 11.1285 16.7856 10.5732 16.3291 10.1571C15.8727 9.74101 15.2917 9.48728 14.6762 9.43538V8.08898C14.6762 7.86498 14.5073 7.6973 14.227 7.64099H13.3849C13.1609 7.64099 12.9932 7.80868 12.9369 8.08898V9.38397C11.249 9.61408 10.1829 10.7304 10.1829 12.1331C10.1829 13.985 11.3053 14.7145 13.6615 14.9948C15.2319 15.2751 15.7423 15.6068 15.7423 16.5089C15.7423 17.411 14.9578 18.0242 13.8917 18.0242C12.4327 18.0242 11.9333 17.4122 11.7595 16.5652C11.7434 16.4706 11.6947 16.3846 11.6218 16.3222C11.5489 16.2598 11.4564 16.2249 11.3604 16.2237H10.402C10.3501 16.2225 10.2985 16.2319 10.2503 16.2512C10.2021 16.2705 10.1583 16.2994 10.1216 16.3362C10.0849 16.3729 10.056 16.4167 10.0367 16.4649C10.0173 16.5131 10.008 16.5647 10.0091 16.6166V16.6729C10.2343 18.0756 11.1315 19.0854 12.9835 19.3657V20.7121C12.9835 20.9361 13.1511 21.105 13.4314 21.1613H14.2735C14.4975 21.1613 14.6665 20.9924 14.7215 20.7121V19.3657C16.4045 19.0854 17.5269 17.9067 17.5269 16.3926L17.5318 16.3975Z" fill="white"/>
<path d="M10.9675 22.2874C9.35336 21.6953 7.95987 20.6219 6.97545 19.2123C5.99103 17.8027 5.46314 16.1248 5.46314 14.4054C5.46314 12.6861 5.99103 11.0082 6.97545 9.59856C7.95987 8.18893 9.35336 7.11553 10.9675 6.52347C11.0753 6.47688 11.1657 6.39781 11.2263 6.2973C11.2869 6.19679 11.3145 6.07987 11.3054 5.96288V5.17707C11.3129 5.074 11.2829 4.97168 11.2207 4.88908C11.1586 4.80648 11.0687 4.7492 10.9675 4.72786C10.8886 4.71962 10.8092 4.73957 10.7436 4.78416C8.7012 5.43331 6.9184 6.71553 5.65321 8.44524C4.38801 10.1749 3.70605 12.2624 3.70605 14.4054C3.70605 16.5485 4.38801 18.6359 5.65321 20.3656C6.9184 22.0953 8.7012 23.3775 10.7436 24.0267C10.7902 24.0538 10.8426 24.0694 10.8965 24.0724C10.9503 24.0753 11.0041 24.0655 11.0534 24.0436C11.1028 24.0217 11.1462 23.9885 11.1802 23.9466C11.2142 23.9048 11.2378 23.8554 11.2491 23.8027C11.3054 23.7464 11.3054 23.6901 11.3054 23.5775V22.7929C11.3054 22.624 11.1365 22.4 10.9675 22.2874ZM16.915 4.78416C16.8682 4.75707 16.8157 4.74144 16.7618 4.73857C16.7079 4.7357 16.654 4.74566 16.6047 4.76765C16.5553 4.78963 16.5119 4.823 16.478 4.86502C16.444 4.90704 16.4206 4.95652 16.4095 5.00938C16.3544 5.06446 16.3544 5.12076 16.3544 5.23337V6.01796C16.3638 6.1311 16.3991 6.24056 16.4574 6.33795C16.5158 6.43535 16.5957 6.51807 16.691 6.57977C18.3052 7.17184 19.6986 8.24523 20.6831 9.65486C21.6675 11.0645 22.1954 12.7424 22.1954 14.4617C22.1954 16.1811 21.6675 17.859 20.6831 19.2686C19.6986 20.6782 18.3052 21.7516 16.691 22.3437C16.5834 22.3903 16.4931 22.4694 16.4327 22.57C16.3724 22.6705 16.345 22.7874 16.3544 22.9043V23.6901C16.3468 23.793 16.3767 23.8951 16.4385 23.9777C16.5004 24.0603 16.5901 24.1177 16.691 24.1393C16.7699 24.1475 16.8493 24.1276 16.915 24.083C18.9565 23.4248 20.7367 22.1362 21.9996 20.4022C23.2624 18.6683 23.9427 16.5786 23.9427 14.4336C23.9427 12.2885 23.2624 10.1988 21.9996 8.46489C20.7367 6.73099 18.9565 5.44229 16.915 4.78416Z" fill="white"/>
</g>
<defs>
<clipPath id="clip0_57_176">
<rect width="26.928" height="26.928" fill="white" transform="translate(0.365234 0.80127)"/>
</clipPath>
</defs>
</svg>
