<svg width="28" height="28" viewBox="0 0 28 28" fill="none" xmlns="http://www.w3.org/2000/svg">
<g clip-path="url(#clip0_57_189)">
<path d="M13.8292 27.3693C21.2652 27.3693 27.2932 21.3412 27.2932 13.9053C27.2932 6.46929 21.2652 0.441254 13.8292 0.441254C6.39327 0.441254 0.365234 6.46929 0.365234 13.9053C0.365234 21.3412 6.39327 27.3693 13.8292 27.3693Z" fill="#26A17B"/>
<path fill-rule="evenodd" clip-rule="evenodd" d="M15.4467 15.0693V15.0676C15.3541 15.0743 14.877 15.1029 13.8125 15.1029C12.9626 15.1029 12.3642 15.0777 12.1539 15.0676V15.0701C8.88212 14.9262 6.44009 14.3565 6.44009 13.6749C6.44009 12.9941 8.88212 12.4245 12.1539 12.278V14.503C12.3676 14.5181 12.9802 14.5543 13.8268 14.5543C14.8425 14.5543 15.3516 14.5122 15.4467 14.5038V12.2797C18.7117 12.4253 21.1478 12.995 21.1478 13.6749C21.1478 14.3565 18.7117 14.9245 15.4467 15.0693ZM15.4467 12.0483V10.0573H20.0025V7.02118H7.59799V10.0573H12.1539V12.0475C8.45127 12.2174 5.66675 12.9512 5.66675 13.8298C5.66675 14.7083 8.45127 15.4412 12.1539 15.6121V21.9923H15.4467V15.6104C19.1434 15.4404 21.9212 14.7074 21.9212 13.8298C21.9212 12.9521 19.1434 12.2191 15.4467 12.0483Z" fill="white"/>
</g>
<defs>
<clipPath id="clip0_57_189">
<rect width="26.928" height="26.928" fill="white" transform="translate(0.365234 0.441254)"/>
</clipPath>
</defs>
</svg>
