<svg width="95" height="95" viewBox="0 0 95 95" fill="none" xmlns="http://www.w3.org/2000/svg">
<path d="M58.2037 43.5288L65.1804 31.6903L83.9857 60.9796L83.9944 66.6007L83.9331 27.9211C83.8886 26.9752 83.3865 26.1101 82.5856 25.5998L48.7292 6.1258C47.9377 5.73648 46.9329 5.74116 46.1426 6.13808C46.0356 6.19185 45.9356 6.24973 45.8398 6.31344L45.7217 6.38768L12.8584 25.4314L12.731 25.4899C12.5667 25.5647 12.4013 25.6612 12.2452 25.7722C11.6221 26.2188 11.2082 26.88 11.0743 27.6206C11.0545 27.7328 11.0393 27.8474 11.0328 27.9631L11.0843 59.4831L28.6006 32.3345C30.8055 28.7348 35.6106 27.5744 40.0713 27.6381L45.306 27.7761L14.4607 77.2432L18.0966 79.3365L49.3114 27.8264L63.1088 27.7761L31.9746 80.5862L44.9489 88.0493L46.4991 88.9402C47.155 89.2067 47.9278 89.2202 48.5889 88.9811L82.9212 69.0851L76.3572 72.8888L58.2037 43.5288ZM60.8652 81.867L47.7612 61.2993L55.7609 47.7247L72.9708 74.8511L60.8652 81.867Z" fill="#2D374B"/>
<path d="M47.7579 61.299L60.8625 81.8661L72.9676 74.8508L55.7576 47.7243L47.7579 61.299Z" fill="#28A0F0"/>
<path d="M83.9945 66.6004L83.9858 60.9793L65.1805 31.69L58.2039 43.5285L76.3579 72.8885L82.9219 69.0848C83.5655 68.5622 83.9554 67.7946 83.9963 66.9669L83.9945 66.6004Z" fill="#28A0F0"/>
<path d="M5.19177 71.9012L14.4611 77.2423L45.3064 27.7753L40.0717 27.6373C35.6116 27.5742 30.8065 28.7339 28.601 32.3336L11.0847 59.4823L5.19177 68.5365V71.9012Z" fill="white"/>
<path d="M63.1073 27.7751L49.31 27.8254L18.0952 79.3354L29.006 85.617L31.9726 80.5852L63.1073 27.7751Z" fill="white"/>
<path d="M89.8088 27.7043C89.6936 24.8189 88.1311 22.1779 85.6842 20.6399L51.3841 0.914558C48.9634 -0.304245 45.9395 -0.305998 43.5142 0.913974C43.2278 1.05836 10.1582 20.2377 10.1582 20.2377C9.70046 20.4569 9.25971 20.7182 8.84526 21.0152C6.66077 22.5812 5.32914 25.0141 5.19177 27.6867V68.5374L11.0847 59.4832L11.0333 27.9626C11.0403 27.8475 11.0549 27.7335 11.0748 27.6218C11.208 26.88 11.6225 26.2189 12.2456 25.7717C12.4017 25.6606 46.0354 6.19136 46.1424 6.13758C46.9333 5.74067 47.9375 5.73599 48.729 6.12531L82.5854 25.5993C83.3863 26.1096 83.8884 26.9747 83.9328 27.9205V66.9661C83.8919 67.7938 83.5646 68.5613 82.921 69.0839L76.357 72.8877L72.97 74.8506L60.865 81.8659L48.5887 88.9799C47.9276 89.219 47.1542 89.2056 46.4989 88.939L31.9744 80.5851L29.0072 85.617L42.0604 93.1321C42.4918 93.3776 42.8764 93.595 43.1921 93.7727C43.6808 94.0469 44.014 94.2299 44.1315 94.2871C45.0592 94.7378 46.3937 94.9997 47.5967 94.9997C48.6992 94.9997 49.7748 94.7975 50.7925 94.3988L86.4499 73.7493C88.4965 72.1634 89.7007 69.772 89.8088 67.1818V27.7043Z" fill="#96BEDC"/>
</svg>
