<svg width="95" height="95" viewBox="0 0 95 95" fill="none" xmlns="http://www.w3.org/2000/svg">
<path d="M47.5 95C73.7335 95 95 73.7335 95 47.5C95 21.2665 73.7335 0 47.5 0C21.2665 0 0 21.2665 0 47.5C0 73.7335 21.2665 95 47.5 95Z" fill="#E84142"/>
<path d="M64.2559 48.7343C65.9015 45.8917 68.557 45.8917 70.2027 48.7343L80.4507 66.7244C82.0964 69.5669 80.7499 71.8858 77.4586 71.8858H56.8129C53.559 71.8858 52.2125 69.5669 53.8208 66.7244L64.2559 48.7343ZM44.433 14.1004C46.0787 11.2579 48.6968 11.2579 50.3425 14.1004L52.624 18.2146L58.0098 27.6772C59.3188 30.3701 59.3188 33.5492 58.0098 36.2421L39.9448 67.5472C38.2992 70.0905 35.5688 71.6988 32.5393 71.8858H17.5413C14.25 71.8858 12.9035 69.6043 14.5492 66.7244L44.433 14.1004Z" fill="white"/>
</svg>
