<svg width="95" height="95" viewBox="0 0 95 95" fill="none" xmlns="http://www.w3.org/2000/svg">
<path d="M54.8618 73.6614V82.5335L47.1271 87.0834L39.6199 82.5335V73.6614L47.1271 78.2112L54.8618 73.6614ZM13.4585 42.9502L20.9657 47.5V62.7419L33.9326 70.4766V79.3487L13.4585 67.2917V42.9502ZM80.7957 42.9502V67.2917L60.094 79.3487V70.4766L73.061 62.7419V47.5L80.7957 42.9502ZM60.094 30.8932L67.8287 35.443V44.3152L54.8618 52.0498V67.5192L47.3546 72.069L39.8474 67.5192V52.0498L26.4255 44.3152V35.443L34.1601 30.8932L47.1271 38.6279L60.094 30.8932ZM26.4255 50.6849L33.9326 55.2347V64.1068L26.4255 59.557V50.6849ZM67.8287 50.6849V59.557L60.3215 64.1068V55.2347L67.8287 50.6849ZM20.9657 23.1585L28.7004 27.7084L20.9657 32.2582V41.1303L13.4585 36.5805V27.7084L20.9657 23.1585ZM73.2885 23.1585L81.0232 27.7084V36.5805L73.2885 41.1303V32.2582L65.7813 27.7084L73.2885 23.1585ZM47.1271 23.1585L54.8618 27.7084L47.1271 32.2582L39.6199 27.7084L47.1271 23.1585ZM47.1271 7.91669L67.8287 19.9737L60.3215 24.5235L47.3546 16.7888L34.1601 24.5235L26.6529 19.9737L47.1271 7.91669Z" fill="#F3BA2F"/>
</svg>
