<svg width="95" height="106" viewBox="0 0 95 106" fill="none" xmlns="http://www.w3.org/2000/svg">
<g clip-path="url(#clip0_46_1645)">
<path d="M47.5 105.556C73.7335 105.556 95 81.9261 95 52.7778C95 23.6294 73.7335 0 47.5 0C21.2665 0 0 23.6294 0 52.7778C0 81.9261 21.2665 105.556 47.5 105.556Z" fill="#13B5EC"/>
<path fill-rule="evenodd" clip-rule="evenodd" d="M51.0625 42.5521L61.75 35.625V49.4792L51.0625 42.5521ZM61.75 72.2396L47.5 81.4757L33.25 72.2396V56.0764L47.5 65.3125L61.75 56.0764V72.2396ZM33.25 35.625L43.9375 42.5521L33.25 49.4792V35.625ZM49.2813 45.8507L59.9688 52.7778L49.2813 59.7049V45.8507ZM45.7187 59.7049L35.0313 52.7778L45.7187 45.8507V59.7049ZM59.9688 32.3264L47.5 40.2431L35.0313 32.3264L47.5 24.0799L59.9688 32.3264ZM29.6875 31.007V74.2188L47.5 85.434L65.3125 74.2188V31.007L47.5 19.7917L29.6875 31.007Z" fill="white"/>
</g>
<defs>
<clipPath id="clip0_46_1645">
<rect width="95" height="105.556" fill="white"/>
</clipPath>
</defs>
</svg>
