<svg width="95" height="95" viewBox="0 0 95 95" fill="none" xmlns="http://www.w3.org/2000/svg">
<g clip-path="url(#clip0_46_1691)">
<path d="M47.5 95C73.7335 95 95 73.7335 95 47.5C95 21.2665 73.7335 0 47.5 0C21.2665 0 0 21.2665 0 47.5C0 73.7335 21.2665 95 47.5 95Z" fill="#FF0420"/>
<path d="M34.4506 60.8C31.5856 60.8 29.2383 60.1103 27.4084 58.7311C25.6028 57.3272 24.7 55.3322 24.7 52.7461C24.7 52.2042 24.7602 51.5392 24.8805 50.7511C25.1936 48.9778 25.6389 46.8474 26.2167 44.3597C27.8538 37.5866 32.0792 34.2 38.8926 34.2C40.7464 34.2 42.4076 34.5202 43.8761 35.1607C45.3448 35.7763 46.5004 36.7122 47.343 37.9683C48.1857 39.1999 48.6071 40.6777 48.6071 42.4017C48.6071 42.9189 48.5469 43.5716 48.4264 44.3597C48.0654 46.5517 47.632 48.6822 47.1264 50.7511C46.2838 54.1253 44.8272 56.6498 42.7566 58.3247C40.6862 59.9748 37.9175 60.8 34.4506 60.8ZM34.9562 55.48C36.3044 55.48 37.448 55.0736 38.387 54.2608C39.3499 53.4481 40.0362 52.2042 40.4454 50.5294C40.9991 48.2142 41.4205 46.1947 41.7093 44.4706C41.8057 43.9533 41.8537 43.4238 41.8537 42.8819C41.8537 40.6406 40.7103 39.52 38.4231 39.52C37.0748 39.52 35.9193 39.9264 34.9562 40.7392C34.0172 41.5519 33.3431 42.7958 32.9338 44.4706C32.5004 46.1208 32.067 48.1403 31.6338 50.5294C31.5375 51.022 31.4892 51.5392 31.4892 52.0811C31.4892 54.347 32.6448 55.48 34.9562 55.48Z" fill="white"/>
<path d="M50.2653 60.4306C50.0005 60.4306 49.7958 60.3444 49.6512 60.1719C49.531 59.9748 49.4949 59.7533 49.5429 59.5069L54.5266 35.4931C54.5747 35.2222 54.7071 35.0005 54.9239 34.8281C55.1405 34.6556 55.3693 34.5694 55.61 34.5694H65.2162C67.8886 34.5694 70.0312 35.1359 71.6443 36.2689C73.2815 37.4019 74.1 39.0397 74.1 41.1825C74.1 41.7983 74.0278 42.4386 73.8834 43.1036C73.2815 45.9361 72.0657 48.0295 70.2358 49.3842C68.4303 50.7387 65.9504 51.4161 62.7966 51.4161H57.9212L56.26 59.5069C56.2119 59.7778 56.0795 59.9995 55.8627 60.1719C55.6461 60.3444 55.4173 60.4306 55.1766 60.4306H50.2653ZM63.0493 46.3178C64.0604 46.3178 64.9392 46.0345 65.6857 45.4681C66.456 44.9016 66.9616 44.0887 67.2025 43.0297C67.2747 42.6111 67.3108 42.2416 67.3108 41.9214C67.3108 41.2072 67.1061 40.6653 66.6969 40.2958C66.2874 39.9017 65.5894 39.7047 64.6021 39.7047H60.2686L58.8962 46.3178H63.0493Z" fill="white"/>
</g>
<defs>
<clipPath id="clip0_46_1691">
<rect width="95" height="95" fill="white"/>
</clipPath>
</defs>
</svg>
