<svg width="67" height="67" viewBox="0 0 67 67" fill="none" xmlns="http://www.w3.org/2000/svg">
<g clip-path="url(#clip0_46_1653)">
<path d="M63.0423 12.7817C62.3816 10.2806 60.258 7.77949 56.4356 4.99523C53.3682 2.77727 50.112 1.50311 47.5165 1.50311C46.9974 1.50311 46.5255 1.5503 46.0536 1.64469C44.8738 1.88064 43.8356 2.73007 43.1749 4.00423C42.3727 5.51433 42.1839 7.54354 42.703 8.7705C42.8918 9.14803 43.1278 9.61993 43.4109 10.0447C40.9098 11.5548 39.4941 11.9795 39.3053 12.0267C45.8176 14.1974 51.2446 18.7278 54.6423 24.6266L54.6895 24.0603C54.8311 22.503 55.303 20.7098 55.9636 18.8693C56.6243 19.0581 57.285 19.1525 57.9457 19.1525C59.6917 19.1525 61.2018 18.4446 62.1456 17.1705C63.0895 15.8963 63.467 14.1974 63.0423 12.7817Z" fill="#5E12A0"/>
<path d="M56.2451 17.5028C60.5395 18.6826 62.2856 15.3793 61.7193 13.1613C61.1058 10.9433 59.1238 8.67816 55.6316 6.12986C52.1395 3.58156 48.6002 2.54336 46.335 3.01527C44.0699 3.48717 43.4092 6.9321 43.9755 8.25345C44.2115 8.77255 44.7306 9.5276 45.4384 10.377C44.5418 10.9905 43.6924 11.4624 42.9845 11.8871C47.3261 13.822 51.1013 16.8422 53.9328 20.6174C54.2631 19.3433 54.735 18.2107 55.1597 17.2197C55.4901 17.2669 55.8676 17.3613 56.2451 17.5028Z" fill="url(#paint0_radial_46_1653)"/>
<path d="M31.6582 63.751C46.2275 63.751 58.0379 51.9405 58.0379 37.3713C58.0379 22.8021 46.2275 10.9916 31.6582 10.9916C17.089 10.9916 5.27856 22.8021 5.27856 37.3713C5.27856 51.9405 17.089 63.751 31.6582 63.751Z" fill="url(#paint1_radial_46_1653)"/>
<path d="M59.55 10.9889C55.9635 7.21361 52.9433 6.2226 49.3096 5.42036C46.4782 4.75968 47.2333 3.1552 50.6782 3.48553C49.0265 2.91924 47.4692 2.77767 46.3366 3.01362C44.0715 3.48553 43.4108 6.93046 43.9771 8.25181C44.213 8.7709 44.7321 9.52596 45.44 10.3754C44.1659 11.2248 43.0805 11.8383 42.1838 12.3102C42.6086 12.499 43.1277 12.7349 43.7411 13.0653C45.3456 13.9147 47.0917 15.3304 47.0917 15.3304C44.449 13.0653 45.0153 12.0271 48.649 9.47877C49.7816 8.67652 51.858 8.7709 53.7928 9.76191C55.7276 10.7529 57.9928 13.254 57.9928 13.254L55.822 17.4068C55.9636 17.454 56.1051 17.5012 56.2467 17.5484C57.6152 17.9259 58.7006 17.8315 59.55 17.5012C60.5411 16.8877 63.1365 14.8113 59.55 10.9889Z" fill="#A98698" fill-opacity="0.6"/>
<path d="M49.2609 7.68727C50.2047 8.0648 51.4317 8.72547 52.9418 9.71648C54.7351 10.8962 56.2924 12.2176 57.2834 13.2558C55.6317 15.4266 54.5463 18.3996 53.8856 20.476C54.216 20.9479 54.5935 21.4198 54.9238 21.8917C55.2542 20.7119 55.8204 18.9659 56.5755 17.2198C56.7643 17.267 57.0002 17.267 57.2362 17.267C57.8025 17.267 58.4631 17.1726 58.9822 16.7479C59.3598 16.4648 59.7845 15.9457 59.7373 15.0018C59.7373 14.1052 59.0294 12.9726 57.5665 11.6041C56.5283 10.6131 55.1126 9.52771 53.6969 8.53671C49.6384 5.84683 46.807 5.09178 45.5328 6.36593C44.6834 7.21536 44.7778 8.25356 45.0609 9.00862C43.5508 9.99962 42.2767 10.7075 41.4272 11.1794C41.9935 11.3682 42.5126 11.6041 43.0789 11.8401C44.589 11.0378 46.7598 9.66929 49.2609 7.68727ZM58.18 14.4356C58.3216 14.6715 58.3687 14.9075 58.3687 15.049C58.3687 15.4738 58.2272 15.6153 58.1328 15.7097C57.944 15.8513 57.5665 15.9457 57.2362 15.9457C57.5193 15.3794 57.8497 14.9075 58.18 14.4356ZM46.5239 7.40413C46.6654 7.26255 47.043 7.16817 47.6564 7.26255C47.1845 7.64008 46.7126 7.97042 46.2407 8.30075C46.1935 7.97042 46.2407 7.64008 46.5239 7.40413Z" fill="#5E12A0"/>
<path d="M31.6584 9.43085C16.227 9.43085 3.72144 21.9364 3.72144 37.3678C3.72144 52.7992 16.227 65.3048 31.6584 65.3048C47.0898 65.3048 59.5954 52.7992 59.5954 37.3678C59.5954 21.9364 47.0426 9.43085 31.6584 9.43085ZM31.6584 63.7475C17.0764 63.7475 5.27873 51.9498 5.27873 37.3678C5.27873 22.7858 17.0764 10.9881 31.6584 10.9881C46.2404 10.9881 58.0381 22.7858 58.0381 37.3678C58.0381 51.9498 46.1932 63.7475 31.6584 63.7475Z" fill="#5E12A0"/>
<path d="M31.6582 63.751C46.2275 63.751 58.0379 51.9405 58.0379 37.3713C58.0379 22.8021 46.2275 10.9916 31.6582 10.9916C17.089 10.9916 5.27856 22.8021 5.27856 37.3713C5.27856 51.9405 17.089 63.751 31.6582 63.751Z" fill="url(#paint2_linear_46_1653)"/>
<path d="M31.4699 60.5427C17.0767 58.2304 7.30821 44.6866 9.66776 30.2934C10.706 23.9226 13.9149 18.4957 18.4452 14.5789C11.8385 18.4013 6.93069 25.0552 5.60935 33.172C3.297 47.5652 13.0655 61.109 27.4115 63.4214C35.4339 64.7427 43.1732 62.2416 48.8833 57.3337C43.8339 60.2596 37.6991 61.5337 31.4699 60.5427Z" fill="#A98698" fill-opacity="0.6"/>
<path d="M35.8602 11.3713C29.2063 10.2859 22.7411 11.796 17.4558 15.1465C17.3614 15.2409 17.267 15.3353 17.267 15.3353C19.2962 14.1083 22.2692 13.023 22.2692 13.023C14.6243 17.4589 12.2648 22.5083 12.2648 22.5083C15.2378 16.751 23.9681 12.6926 30.8108 12.4095C37.6534 12.1263 42.1366 14.1555 47.6107 18.5443C53.0848 22.9802 56.3882 32.0409 56.0579 39.2139C55.7747 46.3869 51.9994 52.1913 51.9994 52.1913C54.5949 48.8408 56.1522 46.3869 57.1432 43.8857C57.332 43.1307 57.5208 42.3756 57.6152 41.5734C59.9747 27.2274 50.2534 13.6836 35.8602 11.3713Z" fill="url(#paint3_linear_46_1653)"/>
<path d="M56.7193 37.1348C56.7193 50.9617 45.4878 62.1931 31.6609 62.1931C17.834 62.1931 6.55542 50.9617 6.55542 37.1348H56.7193Z" fill="url(#paint4_linear_46_1653)"/>
<path d="M54.7366 37.1348C54.7366 50.6313 44.0715 61.674 30.6693 62.1931H31.6603C45.4872 62.1931 56.7186 50.9617 56.7186 37.1348H54.7366Z" fill="url(#paint5_linear_46_1653)"/>
<path d="M10.0947 37.1348H6.55542C6.55542 50.9617 17.7868 62.1931 31.6137 62.1931C32.2272 62.1931 32.7935 62.1931 33.3598 62.1459C20.3823 61.2021 10.0947 50.3482 10.0947 37.1348Z" fill="url(#paint6_linear_46_1653)"/>
<path d="M56.6723 37.3733C56.6723 34.4947 51.6701 32.843 45.0162 32.2767C40.2027 31.8992 35.3421 32.3711 29.7735 34.07C24.9601 35.4857 20.6185 35.2497 17.4567 34.8722C10.4253 34.07 6.55566 33.9756 6.55566 37.3733C6.55566 42.2812 16.5601 48.416 31.5668 46.2924C39.1645 45.207 43.0814 42.989 47.5645 41.4789C52.4251 39.8744 56.6723 39.9216 56.6723 37.3733Z" fill="url(#paint7_linear_46_1653)"/>
<path d="M46.8077 28.6386C47.7982 28.6386 48.6009 27.8359 48.6009 26.8454C48.6009 25.8548 47.7982 25.0521 46.8077 25.0521C45.8171 25.0521 45.0144 25.8548 45.0144 26.8454C45.0144 27.8359 45.8171 28.6386 46.8077 28.6386Z" fill="white"/>
<path d="M39.8694 25.4752C42.2152 25.4752 44.1165 23.5739 44.1165 21.228C44.1165 18.8822 42.2152 16.9808 39.8694 16.9808C37.5235 16.9808 35.6222 18.8822 35.6222 21.228C35.6222 23.5739 37.5235 25.4752 39.8694 25.4752Z" fill="white"/>
<path d="M53.2276 17.8348H53.1332C52.8501 17.7876 52.6613 17.5044 52.7085 17.1741C53.1332 15.0033 54.9265 12.9269 55.0209 12.8325C55.2096 12.5966 55.5872 12.5966 55.7759 12.7853C56.0119 12.9741 56.0119 13.3516 55.8231 13.5404C55.7759 13.5876 54.1242 15.5224 53.7467 17.41C53.6995 17.6932 53.4636 17.8348 53.2276 17.8348Z" fill="url(#paint8_linear_46_1653)"/>
<path d="M47.514 1.50464C50.1567 1.50464 53.4129 2.77879 56.4331 4.99676C60.2556 7.78102 62.3792 10.2349 63.0398 12.7832C63.4174 14.2462 63.087 15.8978 62.1432 17.1248C61.1522 18.399 59.6893 19.1068 57.9432 19.1068C57.3297 19.1068 56.6691 19.0124 55.9612 18.8237C55.5365 19.9091 55.2062 20.9944 54.9702 22.0326C57.8488 26.4214 59.5477 31.7068 59.5477 37.3697C59.5477 52.8011 47.0421 65.3066 31.6107 65.3066C16.1793 65.3066 3.72097 52.8011 3.72097 37.3697C3.72097 21.9383 16.2265 9.4327 31.6579 9.4327C35.0557 9.4327 38.3118 10.0462 41.332 11.1788C41.8983 10.8956 42.6062 10.5181 43.4084 10.0462C43.1253 9.62146 42.8422 9.19674 42.7006 8.77202C42.1815 7.49787 42.3702 5.51586 43.1725 4.00575C43.8332 2.77879 44.8242 1.92935 46.0511 1.64621C46.4758 1.55183 46.9949 1.50464 47.514 1.50464ZM47.514 0.702393C46.9478 0.702393 46.3815 0.749583 45.8624 0.891156C44.4466 1.22149 43.2197 2.16531 42.4174 3.67541C41.5208 5.42147 41.2849 7.68663 41.8983 9.14955C41.9927 9.33831 42.0871 9.57427 42.2287 9.81022C41.8983 9.99898 41.568 10.1877 41.2377 10.3293C38.1231 9.24393 34.9141 8.67764 31.6107 8.67764C27.7411 8.67764 23.9658 9.4327 20.4265 10.9428C16.9816 12.4057 13.9142 14.4821 11.2715 17.1248C8.62881 19.7675 6.55242 22.8349 5.0895 26.2798C3.57939 29.8191 2.82434 33.5944 2.82434 37.464C2.82434 41.3337 3.57939 45.109 5.0895 48.6483C6.55242 52.0932 8.62881 55.1606 11.2715 57.8033C13.9142 60.446 16.9816 62.5224 20.4265 63.9853C23.9658 65.4954 27.7411 66.2504 31.6107 66.2504C35.4804 66.2504 39.2556 65.4954 42.795 63.9853C46.2399 62.5224 49.3073 60.446 51.95 57.8033C54.5927 55.1606 56.6691 52.0932 58.132 48.6483C59.6421 45.109 60.3971 41.3337 60.3971 37.464C60.3971 31.9427 58.8398 26.6102 55.8668 21.9855C56.0084 21.2776 56.2443 20.5697 56.4803 19.8619C56.9522 19.9562 57.4713 20.0034 57.9432 20.0034C59.9252 20.0034 61.6713 19.2012 62.8039 17.6911C63.8893 16.2754 64.314 14.2933 63.8421 12.6417C63.087 9.9046 60.9162 7.30911 56.905 4.43047C53.7432 2.02374 50.2983 0.702393 47.514 0.702393Z" fill="white"/>
<path d="M33.4059 59.4551C33.9533 59.4551 34.3969 59.0115 34.3969 58.4641C34.3969 57.9167 33.9533 57.4731 33.4059 57.4731C32.8585 57.4731 32.4149 57.9167 32.4149 58.4641C32.4149 59.0115 32.8585 59.4551 33.4059 59.4551Z" fill="white" fill-opacity="0.2"/>
<path d="M32.8398 59.079C32.4622 58.7014 32.4622 58.0408 32.8398 57.6632C32.8869 57.616 32.9813 57.5689 33.0285 57.5217C32.8869 57.5689 32.7926 57.6632 32.6982 57.7576C32.3207 58.1351 32.3207 58.7958 32.6982 59.1733C33.0285 59.5037 33.5004 59.5509 33.9251 59.3149C33.5476 59.4565 33.1229 59.3621 32.8398 59.079Z" fill="url(#paint9_linear_46_1653)"/>
<path d="M33.7369 58.1312C33.8412 58.1312 33.9256 58.0467 33.9256 57.9424C33.9256 57.8381 33.8412 57.7537 33.7369 57.7537C33.6326 57.7537 33.5481 57.8381 33.5481 57.9424C33.5481 58.0467 33.6326 58.1312 33.7369 58.1312Z" fill="white" fill-opacity="0.3"/>
<path d="M39.4914 58.7505C40.0388 58.7505 40.4824 58.3069 40.4824 57.7595C40.4824 57.2121 40.0388 56.7685 39.4914 56.7685C38.944 56.7685 38.5004 57.2121 38.5004 57.7595C38.5004 58.3069 38.944 58.7505 39.4914 58.7505Z" fill="white" fill-opacity="0.2"/>
<path d="M38.9253 58.3664C38.5478 57.9889 38.5478 57.3282 38.9253 56.9507C38.9725 56.9035 39.0669 56.8563 39.1141 56.8091C38.9725 56.8563 38.8781 56.9507 38.7838 57.045C38.4062 57.4226 38.4062 58.0832 38.7838 58.4608C39.1141 58.7911 39.586 58.8383 40.0107 58.6023C39.6332 58.7439 39.2085 58.6495 38.9253 58.3664Z" fill="url(#paint10_linear_46_1653)"/>
<path d="M39.8223 57.4268C39.9266 57.4268 40.0111 57.3423 40.0111 57.238C40.0111 57.1337 39.9266 57.0493 39.8223 57.0493C39.718 57.0493 39.6335 57.1337 39.6335 57.238C39.6335 57.3423 39.718 57.4268 39.8223 57.4268Z" fill="white" fill-opacity="0.3"/>
<path d="M29.9131 57.0498C30.6427 57.0498 31.2345 56.4581 31.2345 55.7285C31.2345 54.9989 30.6427 54.4072 29.9131 54.4072C29.1836 54.4072 28.5918 54.9989 28.5918 55.7285C28.5918 56.4581 29.1836 57.0498 29.9131 57.0498Z" fill="white" fill-opacity="0.2"/>
<path d="M29.1577 56.5785C28.6386 56.0594 28.6386 55.2099 29.1577 54.6908C29.2521 54.5965 29.3464 54.5493 29.4408 54.4549C29.2521 54.5021 29.1105 54.5965 28.9689 54.738C28.4498 55.2571 28.4498 56.1066 28.9689 56.6257C29.3936 57.0504 30.0543 57.1448 30.5734 56.8616C30.1015 57.0504 29.5352 56.956 29.1577 56.5785Z" fill="url(#paint11_linear_46_1653)"/>
<path d="M30.3842 55.3489C30.5404 55.3489 30.6674 55.222 30.6674 55.0658C30.6674 54.9096 30.5404 54.7827 30.3842 54.7827C30.228 54.7827 30.1011 54.9096 30.1011 55.0658C30.1011 55.222 30.228 55.3489 30.3842 55.3489Z" fill="white" fill-opacity="0.3"/>
<path d="M36.8032 56.385C37.5327 56.385 38.1245 55.7932 38.1245 55.0636C38.1245 54.3341 37.5327 53.7423 36.8032 53.7423C36.0736 53.7423 35.4818 54.3341 35.4818 55.0636C35.4818 55.7932 36.0736 56.385 36.8032 56.385Z" fill="white" fill-opacity="0.2"/>
<path d="M36.0479 55.9145C35.5288 55.3954 35.5288 54.5459 36.0479 54.0268C36.1423 53.9325 36.2367 53.8853 36.3311 53.7909C36.1423 53.8381 36.0007 53.9325 35.8592 54.074C35.3401 54.5931 35.3401 55.4426 35.8592 55.9617C36.2839 56.3864 36.9446 56.4808 37.4637 56.1976C36.9918 56.3864 36.4255 56.292 36.0479 55.9145Z" fill="url(#paint12_linear_46_1653)"/>
<path d="M37.2744 54.685C37.4306 54.685 37.5575 54.5581 37.5575 54.4019C37.5575 54.2457 37.4306 54.1187 37.2744 54.1187C37.1182 54.1187 36.9912 54.2457 36.9912 54.4019C36.9912 54.5581 37.1182 54.685 37.2744 54.685Z" fill="white" fill-opacity="0.3"/>
<path d="M24.2965 56.5784C25.4956 56.5784 26.4673 55.6068 26.4673 54.4077C26.4673 53.209 25.4956 52.2369 24.2965 52.2369C23.0979 52.2369 22.1257 53.209 22.1257 54.4077C22.1257 55.6068 23.0979 56.5784 24.2965 56.5784Z" fill="white" fill-opacity="0.2"/>
<path d="M23.0699 55.7706C22.2204 54.9211 22.2204 53.5526 23.0699 52.7031C23.2115 52.5616 23.353 52.4672 23.5418 52.3728C23.2586 52.4672 23.0227 52.6559 22.7867 52.8447C21.9373 53.6941 21.9373 55.0627 22.7867 55.9121C23.4946 56.62 24.58 56.7616 25.4294 56.2425C24.6272 56.5728 23.6834 56.4312 23.0699 55.7706Z" fill="url(#paint13_linear_46_1653)"/>
<path d="M25.0519 53.7418C25.3124 53.7418 25.5238 53.5304 25.5238 53.2699C25.5238 53.0094 25.3124 52.798 25.0519 52.798C24.7914 52.798 24.58 53.0094 24.58 53.2699C24.58 53.5304 24.7914 53.7418 25.0519 53.7418Z" fill="white" fill-opacity="0.3"/>
<path d="M43.6941 51.2451C44.8932 51.2451 45.8649 50.2735 45.8649 49.0743C45.8649 47.8757 44.8932 46.9036 43.6941 46.9036C42.4954 46.9036 41.5233 47.8757 41.5233 49.0743C41.5233 50.2735 42.4954 51.2451 43.6941 51.2451Z" fill="white" fill-opacity="0.2"/>
<path d="M42.4195 50.438C41.5701 49.5886 41.5701 48.2201 42.4195 47.3706C42.5611 47.229 42.7026 47.1347 42.8914 47.0403C42.6083 47.1347 42.3723 47.3234 42.1363 47.5122C41.2869 48.3616 41.2869 49.7302 42.1363 50.5796C42.8442 51.2875 43.9296 51.429 44.779 50.9099C43.9768 51.2403 43.0802 51.0987 42.4195 50.438Z" fill="url(#paint14_linear_46_1653)"/>
<path d="M44.4493 48.4085C44.7098 48.4085 44.9212 48.1971 44.9212 47.9366C44.9212 47.6761 44.7098 47.4647 44.4493 47.4647C44.1888 47.4647 43.9774 47.6761 43.9774 47.9366C43.9774 48.1971 44.1888 48.4085 44.4493 48.4085Z" fill="white" fill-opacity="0.3"/>
</g>
<defs>
<radialGradient id="paint0_radial_46_1653" cx="0" cy="0" r="1" gradientUnits="userSpaceOnUse" gradientTransform="translate(60.8585 10.1882) scale(21.0917 21.0917)">
<stop stop-color="#FFEAFF" stop-opacity="0.6"/>
<stop offset="0.68" stop-color="#A087C9"/>
<stop offset="1" stop-color="#10002F"/>
</radialGradient>
<radialGradient id="paint1_radial_46_1653" cx="0" cy="0" r="1" gradientUnits="userSpaceOnUse" gradientTransform="translate(49.1238 19.1846) scale(51.6036)">
<stop stop-color="#FFEAFF" stop-opacity="0.6"/>
<stop offset="0.68" stop-color="#A087C9"/>
<stop offset="1" stop-color="#10002F"/>
</radialGradient>
<linearGradient id="paint2_linear_46_1653" x1="27.4267" y1="63.3768" x2="35.8643" y2="11.322" gradientUnits="userSpaceOnUse">
<stop stop-color="#81FFFF" stop-opacity="0.6"/>
<stop offset="0.62" stop-color="white" stop-opacity="0"/>
<stop offset="1" stop-color="white" stop-opacity="0"/>
</linearGradient>
<linearGradient id="paint3_linear_46_1653" x1="50.251" y1="19.4582" x2="28.4375" y2="39.4727" gradientUnits="userSpaceOnUse">
<stop stop-color="white" stop-opacity="0.6"/>
<stop offset="0.29" stop-color="white" stop-opacity="0.6"/>
<stop offset="0.78" stop-color="white" stop-opacity="0"/>
<stop offset="1" stop-color="white" stop-opacity="0"/>
</linearGradient>
<linearGradient id="paint4_linear_46_1653" x1="6.57667" y1="49.6493" x2="56.707" y2="49.6493" gradientUnits="userSpaceOnUse">
<stop stop-color="#0002E9"/>
<stop offset="1" stop-color="#FF00C7"/>
</linearGradient>
<linearGradient id="paint5_linear_46_1653" x1="59.0796" y1="39.3336" x2="31.7937" y2="65.1203" gradientUnits="userSpaceOnUse">
<stop stop-color="white" stop-opacity="0.6"/>
<stop offset="0.29" stop-color="white" stop-opacity="0.6"/>
<stop offset="0.78" stop-color="white" stop-opacity="0"/>
<stop offset="1" stop-color="white" stop-opacity="0"/>
</linearGradient>
<linearGradient id="paint6_linear_46_1653" x1="6.57667" y1="49.6493" x2="33.3962" y2="49.6493" gradientUnits="userSpaceOnUse">
<stop stop-color="#000292" stop-opacity="0.7"/>
<stop offset="1" stop-color="#7D00C7" stop-opacity="0.7"/>
</linearGradient>
<linearGradient id="paint7_linear_46_1653" x1="6.61056" y1="39.455" x2="56.6739" y2="39.455" gradientUnits="userSpaceOnUse">
<stop stop-color="#000292"/>
<stop offset="1" stop-color="#BE00C7"/>
</linearGradient>
<linearGradient id="paint8_linear_46_1653" x1="55.8524" y1="12.6027" x2="52.2545" y2="18.4496" gradientUnits="userSpaceOnUse">
<stop stop-color="white" stop-opacity="0.6"/>
<stop offset="0.29" stop-color="white" stop-opacity="0.6"/>
<stop offset="0.78" stop-color="white" stop-opacity="0"/>
<stop offset="1" stop-color="white" stop-opacity="0"/>
</linearGradient>
<linearGradient id="paint9_linear_46_1653" x1="32.4089" y1="58.4768" x2="33.9078" y2="58.4768" gradientUnits="userSpaceOnUse">
<stop stop-color="white" stop-opacity="0.6"/>
<stop offset="0.29" stop-color="white" stop-opacity="0.6"/>
<stop offset="0.78" stop-color="white" stop-opacity="0"/>
<stop offset="1" stop-color="white" stop-opacity="0"/>
</linearGradient>
<linearGradient id="paint10_linear_46_1653" x1="38.474" y1="57.7623" x2="39.973" y2="57.7623" gradientUnits="userSpaceOnUse">
<stop stop-color="white" stop-opacity="0.6"/>
<stop offset="0.29" stop-color="white" stop-opacity="0.6"/>
<stop offset="0.78" stop-color="white" stop-opacity="0"/>
<stop offset="1" stop-color="white" stop-opacity="0"/>
</linearGradient>
<linearGradient id="paint11_linear_46_1653" x1="28.5783" y1="55.7696" x2="30.5749" y2="55.7696" gradientUnits="userSpaceOnUse">
<stop stop-color="white" stop-opacity="0.6"/>
<stop offset="0.29" stop-color="white" stop-opacity="0.6"/>
<stop offset="0.78" stop-color="white" stop-opacity="0"/>
<stop offset="1" stop-color="white" stop-opacity="0"/>
</linearGradient>
<linearGradient id="paint12_linear_46_1653" x1="35.4637" y1="55.0967" x2="37.4603" y2="55.0967" gradientUnits="userSpaceOnUse">
<stop stop-color="white" stop-opacity="0.6"/>
<stop offset="0.29" stop-color="white" stop-opacity="0.6"/>
<stop offset="0.78" stop-color="white" stop-opacity="0"/>
<stop offset="1" stop-color="white" stop-opacity="0"/>
</linearGradient>
<linearGradient id="paint13_linear_46_1653" x1="22.128" y1="54.4572" x2="25.3886" y2="54.4572" gradientUnits="userSpaceOnUse">
<stop stop-color="white" stop-opacity="0.6"/>
<stop offset="0.29" stop-color="white" stop-opacity="0.6"/>
<stop offset="0.78" stop-color="white" stop-opacity="0"/>
<stop offset="1" stop-color="white" stop-opacity="0"/>
</linearGradient>
<linearGradient id="paint14_linear_46_1653" x1="41.4957" y1="49.1233" x2="44.7563" y2="49.1233" gradientUnits="userSpaceOnUse">
<stop stop-color="white" stop-opacity="0.6"/>
<stop offset="0.29" stop-color="white" stop-opacity="0.6"/>
<stop offset="0.78" stop-color="white" stop-opacity="0"/>
<stop offset="1" stop-color="white" stop-opacity="0"/>
</linearGradient>
<clipPath id="clip0_46_1653">
<rect width="65.5952" height="65.5952" fill="white" transform="translate(0.702393 0.702393)"/>
</clipPath>
</defs>
</svg>
