<svg width="95" height="106" viewBox="0 0 95 106" fill="none" xmlns="http://www.w3.org/2000/svg">
<path d="M47.472 0C73.7124 0 94.9813 23.6322 94.9813 52.7882C94.9813 81.9442 73.7124 105.556 47.4907 105.556C21.2503 105.556 1.23081e-05 81.9234 1.23081e-05 52.7882C-0.0186774 23.6322 21.2503 0 47.472 0Z" fill="#8247E5"/>
<mask id="mask0_46_1513" style="mask-type:luminance" maskUnits="userSpaceOnUse" x="16" y="22" width="63" height="62">
<path d="M78.2726 22.8223H16.0171V83.4394H78.2726V22.8223Z" fill="white"/>
</mask>
<g mask="url(#mask0_46_1513)">
<path d="M63.0405 41.2836C61.9004 40.5568 60.4426 40.5568 59.153 41.2836L50.0698 47.2643L43.9022 51.0646L34.9872 57.0245C33.8471 57.7513 32.3893 57.7513 31.0997 57.0245L24.1284 52.3105C22.9884 51.5837 22.1847 50.1301 22.1847 48.5103V39.4562C22.1847 38.0025 22.8388 36.5696 24.1284 35.6559L31.0997 31.1288C32.2398 30.402 33.6976 30.402 34.9872 31.1288L41.9584 35.8428C43.0985 36.5696 43.9022 38.0233 43.9022 39.6431V45.6238L50.0698 41.6366V35.4898C50.0698 34.0361 49.4157 32.6032 48.1261 31.6895L35.1554 23.1753C34.0153 22.4485 32.5575 22.4485 31.2679 23.1753L17.9795 31.8764C16.6899 32.6032 16.0358 34.0569 16.0358 35.4898V52.4974C16.0358 53.9511 16.6899 55.384 17.9795 56.2977L31.1184 64.8119C32.2585 65.5387 33.7163 65.5387 35.0059 64.8119L43.9209 59.0181L50.0885 55.0309L59.0035 49.2371C60.1436 48.5103 61.6014 48.5103 62.891 49.2371L69.8622 53.7642C71.0023 54.491 71.806 55.9447 71.806 57.5644V66.6186C71.806 68.0722 71.1518 69.5051 69.8622 70.4188L63.0592 74.9459C61.9191 75.6727 60.4613 75.6727 59.1717 74.9459L52.1817 70.4188C51.0417 69.692 50.238 68.2384 50.238 66.6186V60.8248L44.0704 64.8119V70.7926C44.0704 72.2463 44.7245 73.6792 46.0141 74.5929L59.153 83.1071C60.2931 83.8339 61.7509 83.8339 63.0405 83.1071L76.1794 74.5929C77.3195 73.8661 78.1231 72.4124 78.1231 70.7926V53.5981C78.1231 52.1444 77.469 50.7115 76.1794 49.7978L63.0405 41.2836Z" fill="white"/>
</g>
</svg>
